<svg width="391" height="484" viewBox="0 0 391 484" fill="none" xmlns="http://www.w3.org/2000/svg">
<path d="M278.912 158.881C281.578 156.352 285.161 155.413 288.224 155.531C294.89 155.791 297.712 159.387 298.924 161.497C302.544 167.794 302.344 179.372 299.87 186.526C298.118 191.593 295.25 199.343 288.388 204.882C285.561 207.165 281.407 208.66 277.443 207.978C277.443 207.978 277.063 207.913 276.395 207.797C275.12 211.927 273.551 215.973 272.593 217.936C269.827 225.313 254.784 250.89 235.724 261.391C235.79 265.343 235.671 266.776 236.036 271.75C236.2 273.987 236.374 276.403 237.207 278.585C238.326 281.455 239.829 283.94 242.247 285.879C247.368 289.981 252.631 291.941 259.112 294.365C259.112 294.365 264.264 296.26 266.639 297.189C266.639 297.189 259.701 346.807 193.266 346.807C126.832 346.807 129.093 296.944 129.093 296.944C131.63 295.951 135.854 294.365 135.854 294.365C142.336 291.94 147.599 289.981 152.719 285.879C155.137 283.94 156.641 281.454 157.759 278.585C158.592 276.403 158.766 273.987 158.931 271.75C159.269 267.138 159.19 265.57 159.23 262.219C150.323 257.957 142.338 251.169 134.745 242.06C124.937 230.295 119.376 217.642 116.319 207.166C112.086 208.229 107.522 206.651 104.5 204.171C97.6815 198.58 94.8737 190.808 93.1621 185.727C90.7442 178.553 90.6358 166.975 94.3043 160.706C95.533 158.605 98.3835 155.032 105.05 154.824C108.114 154.728 111.69 155.696 114.337 158.245C114.337 158.245 107.119 80.7611 196.186 80.7611C285.252 80.7611 278.912 158.881 278.912 158.881Z" fill="white"/>
<path d="M88.9855 104.938C86.2182 108.724 83.2078 112.384 81.3944 116.849C77.5429 126.322 76.9549 137.842 81.4831 147.168C84.3807 153.16 88.4828 159.485 94.3624 161.609C94.3777 161.568 94.3985 161.533 94.4182 161.499C95.6371 159.397 98.4689 155.818 105.124 155.585C108.194 155.477 111.786 156.437 114.442 158.996C114.436 152.893 116.302 145.938 119.99 141.436C123.703 136.903 126.716 135.903 129.599 131.782C132.586 127.514 132.234 122.592 132.652 117.884C133.234 111.325 135.789 104.408 142.997 99.9575C150.501 95.3242 161.318 94.3224 171.292 92.897C181.266 91.4716 211.867 91.4716 221.841 92.897C231.815 94.3224 242.633 95.3253 250.136 99.9575C257.344 104.408 259.899 111.325 260.481 117.884C260.899 122.592 260.547 127.514 263.534 131.782C266.418 135.904 269.762 138.77 273.551 143.17C277.566 147.832 278.41 154.291 278.698 159.009C281.345 156.436 284.934 155.476 288.003 155.584C294.658 155.817 297.49 159.396 298.709 161.498C298.729 161.533 298.75 161.569 298.771 161.606C304.651 159.492 308.755 153.163 311.655 147.168C316.183 137.842 315.565 126.322 311.743 116.849C308.039 107.727 299.335 101.967 297.923 91.6164C297.276 86.8796 298.246 82.0851 298.188 77.319C298.071 62.4662 287.338 48.6663 273.577 44.0755C268.285 42.3212 262.727 41.3859 257.553 39.281C249.085 35.8019 243.998 28.6673 236.647 23.1705C224.797 14.2817 211.006 13.1122 196.57 13.1122C182.133 13.1122 168.343 14.2817 156.493 23.1705C149.142 28.6673 144.055 35.8008 135.558 39.281C130.413 41.3859 124.855 42.3212 119.562 44.0755C105.802 48.6663 95.0698 62.4662 94.9515 77.319C94.8924 82.0851 95.8626 86.8796 95.2165 91.6164C94.496 96.9009 91.8743 100.989 88.9888 104.938H88.9855Z" fill="#D98A58"/>
<path d="M96.1747 157.692C82.6898 151.426 80.3146 132.026 85.0048 119.606C87.2552 113.645 91.7396 109.108 95.0818 103.784C98.6616 98.0802 99.9943 92.1762 99.7436 85.5033C99.461 77.9582 99.0449 71.3409 102.575 64.3805C105.554 58.5102 110.29 53.5338 116.079 50.3455C122.472 46.8239 129.99 46.1837 136.719 43.4766C142.641 41.0941 147.33 37.1141 151.977 32.8477C157.462 27.8115 162.956 23.3132 170.105 20.8141C176.878 18.4457 184.055 17.7401 191.19 17.5332C205.442 17.1205 220.792 17.469 232.94 25.8612C238.46 29.6746 242.829 34.8818 248.216 38.8705C253.903 43.0802 260.305 44.8922 267.053 46.7238C280.447 50.3596 291.813 59.6481 293.62 74.159C294.594 81.9894 292.105 89.7011 294.865 97.367C297.262 104.026 302.321 108.964 305.881 114.948C313.488 127.731 312.071 150.884 296.786 157.757C291.656 160.063 296.105 167.574 301.208 165.279C314.961 159.095 320.568 140.648 318.804 126.849C317.862 119.469 315.241 112.807 310.909 106.763C305.953 99.8497 301.785 94.4182 302.153 85.5022C302.482 77.5161 302.657 70.3412 299.443 62.8397C296.711 56.4641 292.4 50.8159 286.928 46.5169C280.836 41.7311 274.08 39.6044 266.683 37.6106C257.875 35.2357 252.144 31.0554 245.527 25.0021C233.305 13.82 219.27 9.4208 202.84 8.85239C187.136 8.31011 170.062 8.94277 156.528 17.8425C150.181 22.0163 145.363 27.9846 139.167 32.3065C132.095 37.2404 123.29 37.7293 115.492 40.9982C102.596 46.4047 92.8686 58.7791 90.9632 72.5942C89.6195 82.3335 92.8752 91.1961 87.1019 100.014C82.462 107.102 77.4082 112.99 75.3122 121.421C71.5517 136.557 76.2036 157.987 91.7516 165.212C96.8284 167.57 101.282 160.063 96.1736 157.69L96.1747 157.692Z" fill="#1F4038"/>
<path d="M118.811 159.023C118.931 154.683 119.689 150.118 121.937 146.316C124.049 142.742 127.368 140.565 130.245 137.705C136.324 131.658 136.04 124.95 137.14 117.05C139.563 99.6309 160.465 98.1282 174.664 96.8836C187.338 95.7729 200.292 95.9144 212.991 96.5319C219.163 96.8313 225.27 97.6262 231.367 98.6258C239.542 99.9674 249.239 101.848 253.637 109.671C258.071 117.559 254.938 127.066 260.301 134.727C263.102 138.728 266.84 141.909 269.918 145.675C273.082 149.547 273.969 154.154 274.315 159.023C274.71 164.584 283.474 164.626 283.076 159.023C282.384 149.271 279.227 142.754 272.571 135.64C268.4 131.182 265.631 127.667 265.092 121.442C264.721 117.17 264.494 113.054 262.929 109.004C256.278 91.8027 235.411 89.8492 219.401 88.2583C205.362 86.8623 190.769 87.0463 176.707 88.0187C161.763 89.0521 140.955 90.5036 132.298 104.619C126.747 113.671 130.731 125.645 122.529 132.934C114.456 140.109 110.352 148.108 110.053 159.025C109.899 164.633 118.66 164.628 118.813 159.025L118.811 159.023Z" fill="#1F4038"/>
<path d="M273.747 200.639C271.107 212.604 265.72 223.332 258.671 233.295C250.352 245.054 239.083 257.604 224.479 261.086C218.999 262.393 221.32 270.795 226.808 269.486C242.905 265.648 255.261 252.597 264.714 239.797C272.87 228.752 279.226 216.408 282.195 202.954C283.4 197.489 274.956 195.157 273.747 200.639Z" fill="#1F4038"/>
<path d="M110.482 202.032C117.491 232.754 140.193 265.772 173.461 271.091C178.977 271.973 181.35 263.58 175.791 262.691C145.362 257.826 125.325 227.751 118.929 199.716C117.683 194.251 109.235 196.564 110.482 202.032Z" fill="#1F4038"/>
<path d="M117.434 155.165C111.175 149.907 101.901 148.658 94.9799 153.622C88.7248 158.108 87.1238 166.466 87.0559 173.686C86.9114 188.988 96.674 213.351 115.421 211.706C120.993 211.218 121.045 202.502 115.421 202.995C103.63 204.03 97.2008 188.188 96.0466 178.501C95.4695 173.659 95.4114 167.208 98.0867 162.903C100.847 158.462 107.362 158.066 111.24 161.323C115.522 164.92 121.749 158.787 117.435 155.163L117.434 155.165Z" fill="#1F4038"/>
<path d="M282.008 161.961C285.781 158.843 292.16 159.167 294.956 163.392C297.818 167.719 297.654 174.403 297.043 179.314C295.837 189.006 289.201 204.746 277.443 203.623C271.834 203.088 271.871 211.802 277.443 212.335C296.178 214.124 306.096 189.785 306.071 174.5C306.059 167.467 304.607 159.316 298.717 154.733C291.819 149.364 282.272 150.464 275.814 155.803C271.474 159.39 277.702 165.523 282.008 161.963V161.961Z" fill="#1F4038"/>
<path d="M130.257 301.146C138.812 297.824 148.207 295.242 155.373 289.299C163.191 282.817 163.549 273.014 163.598 263.607C163.628 258.001 154.867 257.994 154.837 263.607C154.794 271.95 154.847 279.694 146.979 284.603C141.132 288.251 134.329 290.259 127.927 292.745C122.733 294.761 124.992 303.188 130.256 301.144L130.257 301.146Z" fill="#1F4038"/>
<path d="M231.367 263.608C231.418 273.238 231.839 283.194 240.036 289.641C247.438 295.462 256.798 298.04 265.475 301.392C270.733 303.422 273.011 295.003 267.804 292.992C261.415 290.524 254.606 288.566 248.701 285.05C240.323 280.062 240.175 272.524 240.129 263.61C240.1 258.006 231.339 257.994 231.368 263.61L231.367 263.608Z" fill="#1F4038"/>
<path d="M181.19 227.693C190.264 232.433 204.33 233.684 212.974 227.283C217.444 223.973 213.082 216.407 208.552 219.761C202.391 224.324 192.139 223.58 185.612 220.171C180.625 217.566 176.192 225.082 181.19 227.693Z" fill="#1F4038"/>
<path d="M195.122 189.754C195.584 191.523 196.011 193.303 196.389 195.092C196.511 195.669 196.559 196.934 196.805 197.276C196.262 196.522 198.21 195.135 198.255 195.251L198.579 195.305C198.336 195.254 198.093 195.21 197.848 195.175C195.515 194.799 193.134 195.776 192.46 198.217C191.886 200.295 193.171 203.197 195.52 203.574C197.407 203.878 199.142 204.136 201.004 203.504C203.725 202.578 205.524 200.409 205.555 197.496C205.589 194.196 204.401 190.611 203.571 187.438C202.154 182.016 193.702 184.315 195.123 189.754H195.122Z" fill="#1F4038"/>
<path d="M152.166 166.723C150.804 171.127 151.692 181.256 160.081 182.117C171.168 182.051 171.759 169.805 168.025 164.047C164.969 159.333 155.984 157.372 152.165 166.722L152.166 166.723Z" fill="#1F4038"/>
<path d="M240.957 166.724C242.32 171.128 241.432 181.257 233.043 182.118C221.955 182.052 221.365 169.806 225.097 164.048C228.152 159.334 237.138 157.373 240.957 166.724Z" fill="#1F4038"/>
<path d="M13.5999 418.629C16.6234 387.944 26.8909 358.202 47.2485 334.538C70.0197 308.068 101.977 293.469 135.566 285.855C136.063 283.49 137.217 281.183 138.575 279.619C142.641 274.936 147.764 268.163 151.92 263.54C153.686 264.961 189.687 293.187 192.416 295.111H198.759C201.489 293.187 237.489 264.961 239.255 263.54C243.411 268.162 248.534 274.935 252.6 279.619C253.967 281.192 255.126 283.517 255.617 285.902C289.141 293.522 321.021 308.117 343.751 334.538C364.108 358.202 374.376 387.943 377.399 418.629H13.5999Z" fill="#E8A87C"/>
<path d="M138.673 280.699C105.877 287.62 73.6313 300.962 49.7541 325.024C24.8069 350.163 12.3733 383.987 8.78802 418.628C8.21091 424.199 16.976 424.159 17.5487 418.628C20.9533 385.729 33.1821 353.486 57.1842 329.957C79.9204 307.667 110.212 295.597 141.002 289.1C146.514 287.937 144.181 279.537 138.673 280.7V280.699Z" fill="#1F4038"/>
<path d="M249.998 289.099C280.789 295.596 311.08 307.666 333.816 329.956C357.817 353.485 370.046 385.729 373.451 418.627C374.023 424.149 382.789 424.208 382.212 418.627C378.627 383.987 366.193 350.162 341.246 325.023C317.369 300.961 285.122 287.619 252.327 280.698C246.828 279.537 244.478 287.933 249.998 289.098V289.099Z" fill="#1F4038"/>
<path d="M239.617 263.271C243.806 267.931 248.972 274.761 253.072 279.481C255.486 282.26 257.261 287.363 255.887 291.044C254.313 294.172 236.902 321.932 225.177 329.401C221.472 324.492 206.127 303.312 198.786 295.102C201.538 293.163 237.836 264.704 239.617 263.271Z" fill="#E8A87C"/>
<path d="M151.561 263.271C147.371 267.931 142.206 274.761 138.106 279.481C135.692 282.26 133.917 287.363 135.29 291.044C136.865 294.172 154.276 321.932 166.001 329.401C169.705 324.492 185.051 303.312 192.391 295.102C189.639 293.163 153.341 264.704 151.561 263.271Z" fill="#E8A87C"/>
<path d="M236.519 266.35C239.658 269.906 242.603 273.618 245.595 277.296C247.979 280.227 252.385 283.926 251.985 288.075C251.663 291.407 248.382 295.005 246.565 297.743C240.119 307.456 232.855 319.042 222.965 325.639L228.958 327.202C220.085 315.395 211.671 303.113 201.883 292.021L200.996 298.862C215.28 288.601 228.983 277.33 242.714 266.349C247.107 262.835 240.874 256.707 236.519 260.189C223.372 270.703 210.25 281.514 196.574 291.34C194.196 293.048 193.695 295.923 195.687 298.18C204.986 308.716 212.963 320.382 221.393 331.598C222.74 333.39 225.244 334.59 227.387 333.161C239.414 325.136 248.164 311.436 255.85 299.509C258.964 294.678 261.643 290.631 260.29 284.555C259.266 279.957 256.397 276.744 253.482 273.208C249.897 268.862 246.442 264.414 242.713 260.19C238.983 255.966 232.81 262.15 236.518 266.35H236.519Z" fill="#1F4038"/>
<path d="M148.464 260.19C144.927 264.196 141.638 268.402 138.251 272.532C135.371 276.044 132.284 279.275 131.054 283.766C129.319 290.109 132.067 294.454 135.326 299.509C143.013 311.436 151.763 325.136 163.79 333.161C165.911 334.576 168.439 333.386 169.783 331.598C178.212 320.382 186.191 308.716 195.489 298.18C197.482 295.922 196.981 293.048 194.602 291.34C180.927 281.516 167.804 270.704 154.658 260.189C150.305 256.708 144.067 262.834 148.463 266.349C162.192 277.33 175.897 288.6 190.18 298.862L189.293 292.021C179.504 303.113 171.092 315.395 162.218 327.202L168.212 325.639C158.323 319.042 151.056 307.454 144.611 297.743C142.806 295.021 139.513 291.392 139.192 288.075C138.798 283.992 143.24 280.174 145.582 277.296C148.573 273.619 151.518 269.906 154.658 266.35C158.365 262.152 152.192 255.967 148.463 260.19H148.464Z" fill="#1F4038"/>
<path d="M218.874 190.321C208.97 182.262 206.094 163.718 217.486 155.351C226.876 148.453 245.324 150.618 252.705 159.386C260.861 169.075 256.027 188.368 243.781 192.448C235.478 195.215 225.22 194.659 217.987 189.639C213.353 186.424 208.97 193.972 213.565 197.162C222.286 203.215 234.104 203.865 244.226 201.37C256.973 198.229 264.212 186.728 264.922 174.228C265.33 167.024 264.35 159.804 259.639 154.059C255.293 148.758 248.603 145.506 242.014 143.892C229.717 140.881 213.986 143.544 206.554 154.524C197.818 167.429 200.569 186.626 212.679 196.48C217.008 200.003 223.241 193.874 218.874 190.32V190.321Z" fill="#1F4038"/>
<path d="M180.394 196.481C191.154 187.726 194.421 171.849 189.063 159.284C183.612 146.501 170.259 141.953 157.042 142.928C142.913 143.971 129.669 152.707 128.226 167.449C126.945 180.535 131.886 194.918 145.018 200.131C155.734 204.384 169.978 203.777 179.507 197.162C184.097 193.975 179.723 186.421 175.085 189.639C167.858 194.657 157.589 195.228 149.291 192.448C137.059 188.35 132.203 169.085 140.367 159.386C147.827 150.523 166.097 148.56 175.586 155.351C187.104 163.593 184.001 182.344 174.198 190.321C169.832 193.873 176.063 200.005 180.394 196.481Z" fill="#1F4038"/>
<path d="M260.649 169.082C265.193 169.082 269.737 169.082 274.281 169.082C279.919 169.082 279.928 160.37 274.281 160.37C269.737 160.37 265.193 160.37 260.649 160.37C255.011 160.37 255.003 169.082 260.649 169.082Z" fill="#1F4038"/>
<path d="M132.918 160.37C128.209 160.37 123.501 160.37 118.793 160.37C113.155 160.37 113.146 169.082 118.793 169.082C123.501 169.082 128.209 169.082 132.918 169.082C138.556 169.082 138.564 160.37 132.918 160.37Z" fill="#1F4038"/>
<path d="M187.191 171.078C193.42 171.078 199.652 171.078 205.881 171.078C211.519 171.078 211.528 162.366 205.881 162.366C199.652 162.366 193.42 162.366 187.191 162.366C181.553 162.366 181.544 171.078 187.191 171.078Z" fill="#1F4038"/>
<path d="M196.562 259.755C195.559 259.755 194.555 259.169 193.967 257.997L192.481 255.038C191.192 252.471 188.006 252.776 187.074 255.556L187.035 255.675C186.106 258.445 182.935 258.754 181.644 256.2L179.354 251.671C178.306 249.597 175.884 249.312 174.524 251.107C173.918 251.906 173.319 252.703 172.761 253.468C171.536 255.144 169.347 255.093 168.161 253.379L164.439 248.001C163.452 246.576 161.717 246.275 160.428 247.295C157.508 249.606 155.35 251.457 154.617 253.432C154.331 254.202 154.405 255.097 154.653 255.885L153.3 264.716C154.954 269.953 159.038 269.764 160.694 275.005C161.777 278.434 163.872 282.59 167.575 282.378C169.176 282.287 170.562 281.333 172.015 280.678C173.468 280.024 175.361 279.717 176.547 280.761C177.23 281.361 177.506 282.268 177.753 283.127L179.671 289.798C180.389 292.296 182.993 293.032 184.61 291.236C184.781 291.047 184.952 290.86 185.125 290.672C185.385 290.391 185.689 290.093 186.079 290.077C186.762 290.047 186.854 291.01 187.269 291.487C187.806 292.104 188.315 292.71 188.807 293.305C190.778 295.693 193.322 296.975 195.911 297.146C198.936 297.375 202.021 296.096 204.325 293.305C204.817 292.71 205.326 292.104 205.863 291.487C206.278 291.01 206.369 290.047 207.053 290.077C207.442 290.093 207.747 290.391 208.007 290.672C208.18 290.86 208.352 291.047 208.522 291.236C210.139 293.032 212.744 292.296 213.462 289.798L215.379 283.127C215.627 282.268 215.903 281.361 216.585 280.761C217.771 279.717 219.663 280.024 221.117 280.678C222.572 281.333 223.956 282.287 225.557 282.378C229.26 282.589 231.354 278.433 232.438 275.005C234.094 269.764 238.178 269.953 239.832 264.716L238.479 255.885C238.727 255.096 238.801 254.202 238.515 253.432C237.781 251.457 235.624 249.606 232.704 247.295C231.414 246.275 229.679 246.577 228.693 248.001L224.971 253.379C223.785 255.093 221.596 255.144 220.372 253.468C219.813 252.703 219.214 251.906 218.608 251.107C217.248 249.312 214.826 249.597 213.778 251.671L211.488 256.2C210.197 258.754 207.026 258.445 206.097 255.675L206.058 255.556C205.126 252.776 201.94 252.471 200.651 255.038L199.165 257.997C198.577 259.169 197.573 259.755 196.57 259.755H196.562Z" fill="#D98A58"/>
<path d="M197.726 255.555C197.525 255.514 196.463 253.154 195.87 252.316C194.152 249.887 191.5 248.528 188.478 249.092C186.768 249.411 182.837 251.731 183.071 253.878C183.169 254.789 185.074 254.455 185.135 253.428C185.178 252.713 183.837 250.746 183.426 250.048C180.782 245.56 175.368 243.946 171.424 248.028C171.316 248.14 169.805 249.852 169.84 250.104C169.878 250.377 171.577 251.129 171.642 250.75C171.714 250.336 169.966 248.328 169.771 248.047C168.631 246.399 167.536 244.466 165.786 243.386C160.528 240.142 154.405 245.566 151.665 249.767C150.883 250.966 150.398 252.088 150.208 253.495C150.108 254.245 150.316 256.897 150.404 254.876C150.315 256.93 149.76 259.075 149.449 261.105C148.674 266.161 150.114 269.339 153.897 272.94C158.212 277.049 158.279 284.725 165.094 286.465C166.555 286.837 168.058 286.728 169.507 286.412C170.347 286.229 173.671 284.444 173.553 284.381C174.406 284.842 174.885 289.207 175.245 290.264C176.127 292.859 177.394 295.062 180.088 296.103C183.491 297.417 185.596 295.521 188.289 293.84H183.867C182.831 293.072 184.789 295.291 184.955 295.486C185.856 296.54 186.752 297.512 187.841 298.369C190.392 300.378 193.379 301.52 196.665 301.498C199.497 301.479 202.113 300.581 204.444 299.016C205.738 298.145 206.775 297.101 207.796 295.937C208.073 295.621 210.079 293.233 209.261 293.84H204.839C207.059 295.226 208.491 296.785 211.332 296.506C214.546 296.189 216.623 293.811 217.683 290.959C218.253 289.427 218.368 287.661 219.056 286.183C219.188 285.901 219.298 284.53 219.574 284.382C219.28 284.541 223.006 286.274 223.621 286.414C230.165 287.906 233.952 282.784 236.205 277.476C238.385 272.339 244.514 269.651 244.031 263.411C243.895 261.653 243.49 259.883 243.223 258.14C243.081 257.214 242.82 256.227 242.786 255.292C242.777 255.054 242.824 254.37 242.821 255.346C242.816 256.6 243.017 254.347 242.997 254.076C242.626 249.052 236.286 242.459 231.126 242.401C228.463 242.37 226.503 243.794 224.908 245.806C224.119 246.801 221.732 249.282 221.656 250.505L221.485 250.753C221.075 251.255 221.346 251.188 222.301 250.552L223.288 250.105C222.881 249.554 222.468 249.009 222.046 248.47C221.415 247.545 220.363 246.777 219.37 246.299C216.761 245.045 213.56 245.593 211.452 247.566C210.458 248.497 207.911 252.143 207.994 253.43C208.062 254.48 210.701 255.457 209.519 252.769C209.011 251.612 207.836 250.477 206.736 249.858C204.059 248.349 200.558 248.834 198.334 250.915C197.425 251.765 195.713 255.496 195.401 255.558C189.877 256.65 192.215 265.048 197.731 263.958C200.226 263.465 201.815 262.019 203.099 259.891C203.272 259.604 204.569 257.469 204.43 257.239C202.015 256.12 201.308 256.332 202.312 257.876L202.944 259.055C206.349 263.886 212.541 262.785 215.394 258.152C215.824 257.454 217.137 255.545 217.104 254.772L217.558 253.873L215.724 254.503C215.188 256.748 221.088 259.071 222.684 259.055C225.425 259.026 227.289 257.409 228.88 255.397C229.617 254.465 230.247 253.423 230.923 252.446L232.005 250.882C232.553 250.186 232.443 250.206 231.673 250.943C230.581 251.472 230.773 252.01 232.248 252.558C232.996 253.181 233.664 253.88 234.251 254.655C234.162 254.417 234.278 257.287 234.266 257.122C234.395 258.901 234.815 260.704 235.085 262.467C235.19 263.153 235.745 264.666 235.522 265.315C235.589 265.121 234.264 265.911 233.467 266.399C231.043 267.881 229.614 270.69 228.497 273.142C227.653 274.993 227.575 277.625 224.769 277.634C223.531 277.637 221.502 276.12 220.142 275.903C217.033 275.409 214.171 276.491 212.419 279.11C211.3 280.784 210.889 282.898 210.338 284.815C210.189 285.333 209.199 287.509 209.437 287.95C208.997 289.004 209.552 288.885 211.104 287.596C210.532 287.112 209.919 286.686 209.264 286.319C208.059 285.566 206.031 285.438 204.842 286.319C202.033 288.399 200.635 292.634 196.646 292.693C192.579 292.753 191.143 288.43 188.291 286.319C187.102 285.438 185.074 285.566 183.869 286.319C183.214 286.686 182.601 287.11 182.029 287.596C183.581 288.886 184.136 289.004 183.696 287.95C183.883 287.439 183.109 285.907 182.937 285.308C182.408 283.469 182.023 281.347 181.097 279.652C179.587 276.89 176.671 275.522 173.574 275.825C171.891 275.989 169.861 277.637 168.364 277.633C165.801 277.625 165.636 275.569 164.919 273.851C163.719 270.978 162.353 268.932 160.095 266.783C159.282 266.009 157.539 265.106 157.611 265.314C157.425 264.775 157.878 263.567 157.971 262.963C158.264 261.058 158.707 259.117 158.855 257.195C158.87 256.993 158.844 254.754 158.882 254.654C159.469 253.88 160.137 253.181 160.885 252.557C162.36 252.009 162.552 251.471 161.46 250.942C160.692 250.205 160.581 250.185 161.129 250.881L162.21 252.445C162.831 253.342 163.418 254.282 164.082 255.149C165.601 257.133 167.222 258.749 169.866 258.976C171.744 259.137 176.915 257.665 176.977 255.087C177.878 254.258 177.41 253.853 175.574 253.872L176.028 254.771C175.998 255.482 177.197 257.187 177.573 257.827C180.238 262.355 186.127 264.155 189.845 259.494C190.259 259.012 190.584 258.473 190.82 257.875C191.824 256.331 191.117 256.119 188.702 257.238C188.569 257.497 189.683 259.232 189.849 259.523C191.157 261.806 192.724 263.428 195.401 263.957C200.907 265.045 203.264 256.65 197.731 255.557L197.726 255.555Z" fill="#1F4038"/>
<path d="M165.106 422.223C158.63 442.869 132.508 453.235 114.239 440.289C107.25 435.337 103.542 428.285 102.23 420.047C100.894 411.658 99.6483 402.272 100.496 393.823C101.163 387.176 103.54 380.718 109.142 376.718C110.222 375.946 112.352 374.452 113.511 373.677C113.899 371.314 114.88 369.079 117.748 367.049C121.426 364.445 125.479 365.101 128.733 365.802C129.325 363.083 129.746 359.21 133.011 356.89C135.452 355.157 138.984 353.074 145.138 356.134C146.556 356.949 147.831 357.793 149.029 358.7C153.441 352.464 158.941 346.992 165.201 342.59L165.107 422.224L165.106 422.223Z" fill="white"/>
<path d="M162.989 338.827C156.571 343.413 151.097 348.758 146.322 355.014C144.881 356.902 146.037 359.868 147.893 360.974C150.126 362.304 152.464 361.275 153.887 359.411C157.69 354.428 162.307 349.997 167.411 346.35C171.949 343.107 167.58 335.548 162.989 338.827Z" fill="#1F4038"/>
<path d="M146.285 407.283C146.132 408.454 143.647 410.61 142.318 409.324C141.226 408.265 141.938 400.609 141.664 398.841C140.792 393.193 138.604 388.131 135.161 383.572C131.816 379.142 124.207 383.479 127.596 387.969C131.711 393.42 133.187 398.937 133.455 405.725C133.645 410.56 133.82 415.06 138.846 417.259C146.792 420.734 154.038 415.013 155.044 407.284C155.766 401.741 146.999 401.793 146.284 407.284L146.285 407.283Z" fill="#1F4038"/>
<path d="M133.39 407.046C133.03 408.784 130.933 411.196 129.012 409.281C127.797 408.071 127.944 404.731 127.585 403.117C126.586 398.632 124.499 395.044 121.675 391.461C118.2 387.053 112.039 393.256 115.48 397.621C117.914 400.709 118.878 403.949 119.589 407.757C120.28 411.461 121.321 414.737 124.664 416.91C131.301 421.226 140.302 416.769 141.838 409.362C142.972 403.89 134.529 401.55 133.39 407.046Z" fill="#1F4038"/>
<path d="M160.882 421.064C154.11 441.108 124.773 450.111 111.153 431.198C107.491 426.113 106.543 419.991 105.714 413.947C104.81 407.366 104.059 400.454 104.876 393.823C105.764 386.613 108.898 382.261 114.702 378.132C116.761 376.667 117.013 375.848 117.984 373.664C119.802 369.576 123.543 369.196 127.569 370.002C129.765 370.442 132.457 369.394 132.956 366.959C133.931 362.211 136.051 357.572 141.755 359.482C146.606 361.105 150.679 365.756 153.919 369.518C160.59 377.266 161.605 385.621 161.391 395.475C161.325 398.533 161.826 402.889 160.837 405.822C160.263 407.526 158.803 409.171 156.755 407.756C154.925 406.49 155.314 402.017 155.081 400.07C153.886 390.049 152.012 380.746 145.255 372.875C141.589 368.605 135.417 374.792 139.06 379.035C144.92 385.862 145.74 394.951 146.712 403.518C147.41 409.678 149.017 415.15 155.914 416.683C170.58 419.938 170.202 401.669 170.182 392.515C170.167 385.936 169.755 379.361 166.818 373.369C163.704 367.016 158.952 361.293 153.533 356.741C148.532 352.54 142.149 348.802 135.398 350.794C128.742 352.76 125.812 358.298 124.509 364.645L129.897 361.603C120.938 359.809 111.394 362.621 109.286 372.519L111.299 369.916C105.625 373.777 100.93 377.538 98.3254 384.098C95.4771 391.276 95.5395 399.38 96.1626 406.956C97.3234 421.065 99.5782 435.343 112.027 444.049C132.827 458.596 161.606 446.237 169.329 423.38C171.128 418.055 162.672 415.769 160.882 421.064Z" fill="#1F4038"/>
<path d="M159.177 414.371L174.916 306.393C175.898 299.654 182.198 294.977 188.974 295.954L238.215 303.051C244.992 304.027 249.696 310.291 248.714 317.029L232.975 425.009C231.992 431.747 225.693 436.424 218.917 435.448L169.676 428.351C162.9 427.375 158.195 421.11 159.177 414.372L159.177 414.371Z" fill="#16302A"/>
<path d="M168.515 432.555C182.019 434.502 195.525 436.447 209.03 438.394C214.863 439.235 221.27 440.951 226.939 438.696C233.32 436.158 236.53 430.511 237.509 424.07C242.04 394.229 246.217 364.331 250.571 334.463C252.082 324.098 256.583 310.352 247.174 302.485C242.442 298.528 236.083 298.377 230.239 297.536L204.362 293.806C199.26 293.071 194.119 292.06 188.981 291.601C179.893 290.791 172.251 296.932 170.625 305.736C168.547 316.987 167.312 328.463 165.662 339.781C163.149 357.02 160.637 374.257 158.124 391.496L155.575 408.981C154.887 413.704 154.088 418.275 156.139 422.871C158.427 427.996 163.038 431.442 168.517 432.556C173.996 433.67 176.374 425.28 170.846 424.156C159.224 421.792 164.739 406.389 165.894 398.462C168.129 383.13 170.364 367.798 172.6 352.466C174.505 339.39 176.412 326.316 178.317 313.24C178.705 310.584 178.767 307.022 180.021 304.586C183.196 298.416 189.945 300.466 195.31 301.239C208.87 303.194 222.477 304.937 236.004 307.104C247.796 308.993 243.864 320.215 242.675 328.369C238.479 357.157 234.282 385.946 230.086 414.733C229.647 417.748 229.381 420.856 228.759 423.842C226.869 432.907 219.276 431.137 212.592 430.173C198.677 428.167 184.762 426.162 170.846 424.156C165.331 423.361 162.951 431.753 168.517 432.556L168.515 432.555Z" fill="#1F4038"/>
<path d="M188.524 312.323L186.943 323.169C186.783 324.264 187.547 325.28 188.648 325.439L200.559 327.156C201.66 327.314 202.682 326.555 202.842 325.46L204.423 314.615C204.582 313.52 203.819 312.503 202.718 312.344L190.807 310.628C189.706 310.469 188.684 311.228 188.524 312.323Z" fill="white"/>
<path d="M187.484 329.639C191.846 330.267 196.55 331.551 200.958 331.489C208.091 331.389 207.709 322.2 208.434 317.228C208.901 314.029 208.846 310.739 205.682 308.851C203.697 307.666 200.828 307.704 198.613 307.385C193.309 306.621 185.882 304.478 184.233 311.632C183.582 314.452 183.384 317.453 182.967 320.317C182.351 324.542 182.927 328.021 187.484 329.639C192.803 331.528 195.093 323.114 189.813 321.239C195.106 323.12 190.602 325.438 191.236 323.861C191.408 323.432 191.387 322.822 191.454 322.365L192.057 318.228C192.225 317.082 192.54 315.858 192.572 314.698C192.578 314.465 192.781 313.937 192.717 313.695L192.745 313.509C192.916 312.39 191.899 312.833 189.695 314.835C190.873 315.687 194.546 315.534 195.941 315.736C197.105 315.903 200.467 317.039 201.554 316.545C200.794 313.402 200.336 312.418 200.179 313.591L200.131 313.923C199.996 314.198 199.994 314.864 199.952 315.151L199.408 318.88L198.83 322.847C198.79 323.128 198.577 323.699 198.668 323.964L198.626 324.249C198.445 325.39 199.46 324.957 201.672 322.95C200.496 322.124 197.191 322.304 195.768 322.099L189.813 321.241C187.454 320.902 185.135 321.823 184.425 324.284C183.835 326.327 185.147 329.305 187.485 329.641L187.484 329.639Z" fill="white"/>
<path d="M246.621 381.413C242.882 375.388 238.47 369.775 233.484 364.722C231.235 362.442 228.758 360.207 225.689 359.258C222.621 358.308 218.822 358.997 217.025 361.644C214.531 365.316 216.933 370.209 219.319 373.95C223.752 380.903 228.186 387.856 232.619 394.807C223.985 390.762 215.352 386.717 206.718 382.673C202.925 380.895 198.854 379.073 194.702 379.657C190.549 380.242 187.32 384.028 188.611 387.995C189.369 390.323 190.701 391.59 192.509 392.723C191.02 392.094 190.108 391.713 190.108 391.713C185.731 389.883 181.884 392.686 181.123 395.586C180.362 398.486 181.781 401.54 183.693 403.856C186.132 406.812 189.324 408.977 192.704 410.855C191.554 412.929 190.298 415.194 190.298 415.194C187.521 414.491 185.179 417.741 185.235 420.59C185.292 423.497 186.847 426.216 188.906 428.281C190.966 430.345 193.511 431.852 196.026 433.336C203.276 437.615 210.526 441.893 217.776 446.172C218.085 454.087 220.164 463.334 226.906 468.05C232.813 472.182 241.218 471.688 247.362 467.916C253.508 464.143 257.546 457.594 259.546 450.693C261.546 443.792 261.699 436.503 261.501 429.324C261.227 419.443 260.226 409.275 255.686 400.499C253.398 393.821 250.344 387.41 246.62 381.408L246.621 381.413Z" fill="white"/>
<path d="M248.512 380.313C245.446 375.4 241.96 370.741 238.087 366.427C234.636 362.584 230.547 357.886 225.184 356.895C220.421 356.015 215.037 358.219 213.98 363.318C212.863 368.7 216.581 373.723 219.307 377.998C223.114 383.968 226.92 389.938 230.728 395.908L233.724 392.929C224.938 388.813 216.165 384.67 207.366 380.581C203.215 378.651 198.797 376.82 194.119 377.559C190.609 378.113 187.328 380.698 186.402 384.181C185.261 388.47 187.918 392.366 191.403 394.606L193.614 390.845C190.665 389.6 187.797 388.3 184.546 389.403C181.518 390.43 179.204 392.989 178.808 396.173C177.857 403.806 185.781 409.478 191.599 412.739L190.813 409.759C190.011 411.205 189.209 412.653 188.407 414.099L190.881 413.098C186.525 412.243 183.224 416.145 183.05 420.236C182.851 424.913 186.038 429.004 189.56 431.724C193.632 434.869 198.363 437.253 202.788 439.865C207.416 442.596 212.043 445.326 216.671 448.057L215.586 446.177C215.934 454.381 217.903 463.757 224.729 469.133C232.023 474.876 242.755 474.097 250.045 468.74C258.006 462.89 261.872 453.485 263.138 443.977C263.848 438.647 263.837 433.259 263.647 427.895C263.464 422.745 263.047 417.578 262.044 412.514C260.911 406.794 258.552 401.624 256.444 396.228C254.283 390.697 251.633 385.374 248.513 380.316C247.041 377.93 243.251 380.116 244.731 382.515C248.084 387.949 250.921 393.686 253.086 399.691C254.17 402.698 255.652 405.503 256.57 408.583C257.451 411.541 258.071 414.581 258.479 417.638C259.322 423.946 259.527 430.428 259.33 436.785C259.137 443.033 258.277 449.455 255.548 455.154C253.224 460.006 249.69 464.388 244.803 466.854C240.269 469.141 234.384 469.604 229.782 467.242C225.267 464.924 222.708 460.385 221.379 455.668C220.699 453.253 220.288 450.777 220.091 448.279C219.977 446.837 220.23 445.226 218.883 444.299C217.421 443.292 215.785 442.47 214.256 441.568C207.581 437.629 200.728 433.889 194.215 429.69C191.533 427.959 188.767 425.726 187.777 422.57C187.403 421.376 187.246 420.13 187.762 418.952C188.067 418.256 188.81 417.121 189.718 417.3C190.659 417.485 191.701 417.184 192.192 416.299C192.993 414.853 193.796 413.406 194.598 411.96C195.162 410.942 194.865 409.571 193.811 408.981C189.688 406.67 183.832 403.094 183.146 397.928C182.891 396.007 183.884 394.312 185.712 393.605C187.734 392.823 189.631 393.86 191.405 394.608C193.941 395.677 196.052 392.412 193.616 390.847C191.009 389.172 189.208 385.805 191.89 383.296C195.055 380.334 200.116 382.103 203.539 383.608C212.957 387.746 222.2 392.329 231.515 396.692C233.357 397.555 235.779 395.7 234.511 393.713C231.62 389.179 228.729 384.645 225.837 380.11C224.343 377.768 222.846 375.427 221.356 373.082C220.181 371.235 219.036 369.324 218.457 367.197C217.991 365.483 217.971 363.505 219.405 362.227C220.598 361.162 222.391 360.868 223.94 361.087C228.374 361.712 231.852 366.05 234.659 369.143C238.422 373.29 241.77 377.77 244.731 382.515C246.215 384.892 250.005 382.707 248.513 380.316L248.512 380.313Z" fill="#1F4038"/>
<path d="M191.273 387.514C184.345 385.461 177.041 389.307 176.511 396.89C176.1 402.766 178.827 407.375 183.361 410.819C192.711 417.921 203.47 423.708 213.934 429.004C218.948 431.541 223.386 424.028 218.355 421.481C211.507 418.015 204.818 414.188 198.261 410.209C195.086 408.283 191.848 406.354 188.882 404.114C186.223 402.106 182.282 393.938 188.944 395.914C194.358 397.519 196.672 389.113 191.273 387.514Z" fill="#1F4038"/>
<path d="M190.558 408.117C180.595 409.485 179.016 420.764 183.604 428.058C186.459 432.596 191.117 435.491 195.627 438.17C202.261 442.111 208.919 446.014 215.564 449.936L213.395 446.175C214.168 460.772 221.428 476.738 238.708 475.183C256.072 473.622 264.272 456.476 265.649 441.092C266.44 432.249 265.982 423.019 264.564 414.259C263.183 405.729 259.633 397.566 256.049 389.74C252.308 381.565 247.368 373.972 241.56 367.1C237.028 361.736 231.285 354.867 223.639 354.546C215.503 354.204 210.016 361.116 212.116 368.929C213.34 373.483 216.359 377.442 218.859 381.364C222.184 386.578 225.509 391.792 228.834 397.007L234.828 391.047C224.959 386.424 215.185 381.324 205.089 377.215C198.013 374.335 187.864 374.079 184.65 382.609C181.727 390.368 188.178 395.368 194.162 398.647C203.31 403.659 212.345 408.874 221.416 414.021C226.321 416.805 230.74 409.281 225.838 406.499C220.067 403.225 214.311 399.924 208.533 396.662C205.993 395.228 203.449 393.803 200.895 392.394C198.942 391.316 194.992 390.028 193.647 388.136C190.303 383.43 198.126 383.972 200.537 384.755C203.815 385.818 206.944 387.575 210.056 389.033C216.84 392.211 223.623 395.389 230.407 398.567C234.09 400.293 238.935 396.584 236.4 392.608C233.445 387.972 230.489 383.338 227.533 378.702C225.954 376.226 217.889 366.627 221.202 363.606C226.545 358.733 240.312 379.619 242.324 382.79C253.337 400.144 258.533 419.624 256.959 440.112C256.242 449.449 252.879 460.544 243.694 464.966C233.128 470.052 224.977 462.735 222.895 452.645C222.153 449.055 223.055 444.923 219.985 442.41C215.823 439.002 210.13 436.595 205.485 433.854C201.175 431.31 195.857 429.012 192.455 425.245C189.973 422.497 187.602 417.24 192.885 416.515C198.446 415.752 196.078 407.357 190.556 408.115L190.558 408.117Z" fill="#1F4038"/>
<path d="M240.379 368.325C246.642 377.176 249.703 388.756 252.149 399.178C253.43 404.636 261.879 402.325 260.596 396.862C257.993 385.774 254.611 373.35 247.943 363.928C244.723 359.377 237.123 363.725 240.378 368.325H240.379Z" fill="#1F4038"/>
</svg>
