<?xml version="1.0" encoding="UTF-8"?>
<svg id="_レイヤー_2" data-name="レイヤー 2" xmlns="http://www.w3.org/2000/svg" viewBox="0 0 418.23 91.7">
  <defs>
    <style>
      .cls-1 {
        fill: #fff;
      }
    </style>
  </defs>
  <g id="_編集モード" data-name="編集モード">
    <g>
      <path class="cls-1" d="M34.51,39.88H14.72l-4.34,10.3H0L21.12,1.1h7.5l20.53,49.08h-10.3l-4.34-10.3ZM31.71,32.08l-6.99-17.66-6.99,17.66h13.98Z"/>
      <path class="cls-1" d="M66.52,43.56c1.99,0,3.68,1.69,3.68,3.68s-1.69,3.68-3.68,3.68-3.68-1.69-3.68-3.68,1.69-3.68,3.68-3.68Z"/>
      <path class="cls-1" d="M114.2,23.91h22.51v.59c0,3.31-.44,13.61-7.21,20.31-5.08,5.08-11.33,6.47-17.44,6.47s-12.44-1.25-17.81-6.62c-1.69-1.69-7.28-7.87-7.28-18.91,0-9.49,4.27-15.3,7.21-18.25,3.68-3.75,9.86-7.5,19.35-7.5,3.68,0,7.58.59,11.33,2.58,3.16,1.62,6.62,4.56,9.2,8.98l-8.31,4.49c-1.69-3.31-4.19-5-5.74-5.81-2.06-1.03-4.64-1.55-6.92-1.55-3.9,0-8.31,1.4-11.33,4.34-2.8,2.72-4.93,7.43-4.93,12.95,0,6.55,2.8,10.45,4.86,12.43,2.21,2.13,5.67,4.19,10.89,4.19,3.24,0,6.92-.88,9.64-2.94,1.91-1.47,3.83-3.97,4.64-7.5h-12.66v-8.24Z"/>
      <path class="cls-1" d="M157.61,42.23c2.43,0,4.41,1.99,4.41,4.41s-1.99,4.41-4.41,4.41-4.42-1.99-4.42-4.41,1.99-4.41,4.42-4.41Z"/>
      <path class="cls-1" d="M230.89,25.68c0,14.94-10.74,25.6-26.19,25.6s-26.19-10.67-26.19-25.6S189.25,0,204.7,0s26.19,10.74,26.19,25.68ZM221.03,25.68c0-9.93-6.77-17-16.33-17s-16.33,7.06-16.33,17,6.77,16.92,16.33,16.92,16.33-6.99,16.33-16.92Z"/>
      <path class="cls-1" d="M252.23,39.66c3.24,0,5.74,2.5,5.74,5.74s-2.5,5.74-5.74,5.74-5.74-2.5-5.74-5.74,2.5-5.74,5.74-5.74Z"/>
      <path class="cls-1" d="M290.12,1.1c6.77,0,10.23,1.77,12.51,3.68,3.75,3.16,4.86,7.36,4.86,11.04,0,4.78-1.91,8.98-5.74,11.55-1.25.88-3.02,1.69-5.37,2.13l15.3,20.68h-11.92l-13.1-19.72h-1.18v19.72h-9.57V1.1h14.2ZM285.49,23.69h2.72c1.84,0,9.42-.22,9.42-7.43s-7.5-7.36-9.27-7.36h-2.87v14.79Z"/>
      <path class="cls-1" d="M330.23,42.23c2.43,0,4.42,1.99,4.42,4.41s-1.99,4.41-4.42,4.41-4.41-1.99-4.41-4.41,1.99-4.41,4.41-4.41Z"/>
      <path class="cls-1" d="M382.54,39.88h-19.79l-4.34,10.3h-10.37L369.15,1.1h7.5l20.53,49.08h-10.3l-4.34-10.3ZM379.74,32.08l-6.99-17.66-6.99,17.66h13.98Z"/>
      <path class="cls-1" d="M414.55,43.56c1.99,0,3.68,1.69,3.68,3.68s-1.69,3.68-3.68,3.68-3.68-1.69-3.68-3.68,1.69-3.68,3.68-3.68Z"/>
    </g>
    <g>
      <path class="cls-1" d="M67.55,73.9v17.45h-2.16v-17.45h-4.74v-2.05h11.63v2.05h-4.74Z"/>
      <path class="cls-1" d="M101.11,73.9h-7.95v5.79h7.72v2.05h-7.72v7.57h7.95v2.05h-10.11v-19.5h10.11v2.05Z"/>
      <path class="cls-1" d="M131.63,85.86h-8.3l-2.34,5.5h-2.4l8.97-20.43,8.74,20.43h-2.4l-2.28-5.5ZM130.78,83.81l-3.27-7.81-3.33,7.81h6.61Z"/>
      <path class="cls-1" d="M165.08,86.02c-.4.56-.98,1.27-1.89,2.2l2.48,3.22h-2.04l-1.6-2.06c-1.29,1.29-3.08,2.33-4.77,2.33-2.42,0-4.28-1.75-4.28-4.1,0-1.6.84-2.57,1.33-3.06.78-.78,2.17-1.64,2.48-1.84-1-1.29-1.46-2.17-1.46-3.17,0-1.55,1.09-3.13,3.22-3.13s3.13,1.49,3.13,2.97c0,.69-.2,1.66-1.38,2.68-.38.33-.24.16-1.2.95l3.08,3.97c.8-.84,1.26-1.38,1.69-1.95l1.2,1ZM157.76,83.92c-1.09.66-1.66,1.15-2.09,1.53-.42.38-1.04.98-1.04,2.13,0,1.46,1.09,2.62,2.62,2.62s3.24-1.51,3.79-2.04l-3.28-4.24ZM158.16,81.81l.98-.75c.84-.66,1-1.2,1-1.71,0-1.04-.82-1.53-1.6-1.53-.91,0-1.64.69-1.64,1.62,0,.64.31,1.06.6,1.46l.67.91Z"/>
      <path class="cls-1" d="M200.03,76.15c-.61-.61-1.55-1.34-2.54-1.81-1.02-.47-2.22-.76-3.36-.76-4.5,0-7.83,3.62-7.83,8.13,0,5.29,4.3,7.95,7.86,7.95,1.32,0,2.6-.38,3.63-.91,1.11-.56,1.9-1.29,2.25-1.64v2.69c-2.16,1.55-4.41,1.9-5.88,1.9-5.79,0-10.09-4.38-10.09-10.03s4.36-10.14,10.2-10.14c1.17,0,3.42.15,5.76,1.93v2.69Z"/>
      <path class="cls-1" d="M215.23,81.62c0-5.82,4.53-10.09,10.14-10.09s10.14,4.27,10.14,10.09-4.5,10.09-10.14,10.09-10.14-4.3-10.14-10.09ZM217.45,81.62c0,4.47,3.54,8.04,7.92,8.04s7.92-3.57,7.92-8.04-3.54-8.04-7.92-8.04-7.92,3.57-7.92,8.04Z"/>
      <path class="cls-1" d="M261.24,73.9h-6.72v5.76h6.49v2.05h-6.49v9.65h-2.16v-19.5h8.89v2.05Z"/>
      <path class="cls-1" d="M287.37,73.9h-6.72v5.76h6.49v2.05h-6.49v9.65h-2.16v-19.5h8.89v2.05Z"/>
      <path class="cls-1" d="M314.73,73.9h-7.95v5.79h7.72v2.05h-7.72v7.57h7.95v2.05h-10.11v-19.5h10.11v2.05Z"/>
      <path class="cls-1" d="M344.61,73.9h-7.95v5.79h7.72v2.05h-7.72v7.57h7.95v2.05h-10.11v-19.5h10.11v2.05Z"/>
    </g>
  </g>
</svg>