<svg width="610" height="428" viewBox="0 0 610 428" fill="none" xmlns="http://www.w3.org/2000/svg">
<g clip-path="url(#clip0_17_181)">
<path d="M392.273 213.99C392.51 210.298 392.918 204.635 393.283 200.752C393.375 199.764 392.79 198.898 391.931 198.742L339.21 189.133C338.351 188.976 337.498 189.581 337.236 190.537C336.206 194.299 334.59 199.741 333.508 203.279" fill="#D98A58"/>
<path d="M399.89 215.647L325.793 202.142C325.015 202 324.269 202.517 324.127 203.296C323.15 208.656 321.992 215.003 321.015 220.362C320.873 221.141 321.389 221.888 322.167 222.03L396.264 235.534C397.042 235.676 397.789 235.159 397.931 234.38C398.908 229.021 400.065 222.674 401.042 217.315C401.184 216.536 400.668 215.789 399.89 215.647Z" fill="#D98A58"/>
<path d="M324.962 222.539C323.943 232.139 322.927 241.739 321.914 251.339C320.513 264.602 319.116 277.865 317.716 291.127C317.513 293.057 317.007 295.17 317.458 297.085C317.867 298.814 319.043 300.363 320.693 301.079C322.479 301.853 324.671 301.956 326.576 302.3C328.512 302.651 330.449 303.001 332.385 303.35C340.09 304.744 347.795 306.145 355.496 307.559C359.339 308.265 363.182 308.97 367.025 309.676C368.98 310.034 370.772 310.239 372.52 309.09C374.135 308.027 374.826 306.404 375.306 304.603C377.425 296.646 379.537 288.687 381.64 280.725C385.248 267.059 388.826 253.386 392.339 239.696C392.738 238.144 393.136 236.59 393.533 235.037C393.856 233.774 392.814 232.457 391.599 232.235C390.244 231.989 389.124 232.909 388.8 234.174C385.54 246.928 382.224 259.667 378.875 272.397C376.969 279.645 375.052 286.889 373.128 294.133C372.594 296.144 372.06 298.155 371.525 300.166C371.272 301.118 371.019 302.069 370.765 303.019C370.598 303.646 370.537 304.458 370.053 304.926C369.306 305.648 367.444 304.854 366.489 304.679C364.582 304.329 362.675 303.978 360.768 303.629C353.415 302.278 346.063 300.928 338.706 299.598C335.099 298.945 331.492 298.293 327.885 297.64C326.978 297.475 326.071 297.311 325.164 297.147C324.421 297.012 323.271 297.008 322.643 296.669C321.622 296.118 322.198 294.371 322.296 293.439C323.662 280.491 325.026 267.543 326.393 254.594C327.371 245.33 328.351 236.066 329.333 226.803C329.453 225.669 329.573 224.535 329.694 223.401C329.831 222.107 329.107 220.845 327.76 220.599C326.553 220.38 325.1 221.237 324.961 222.538L324.962 222.539Z" fill="#1F4038"/>
<path d="M390.613 235.4L327.742 223.363C325.512 244.763 321.052 287.83 321.052 288.9C321.052 289.97 353.157 308.962 369.209 318.324L390.613 235.4Z" fill="white"/>
<path d="M394.639 214.421C394.817 211.682 395.01 208.945 395.224 206.209C395.318 205.013 395.414 203.817 395.519 202.622C395.657 201.052 395.913 199.444 394.943 198.064C393.881 196.553 392.336 196.367 390.715 196.071L342.284 187.244C341.137 187.035 339.858 186.646 338.676 186.709C334.967 186.907 334.525 191.389 333.724 194.164C332.886 197.065 332.024 199.96 331.142 202.849C330.761 204.096 331.904 205.437 333.076 205.65C334.478 205.906 335.493 204.961 335.875 203.712C336.614 201.287 337.341 198.856 338.052 196.421C338.393 195.253 338.731 194.084 339.061 192.913C339.116 192.72 339.627 191.436 339.51 191.306C339.577 191.38 338.795 191.525 338.787 191.506C338.864 191.711 340.92 191.894 341.138 191.934L390.286 200.892C390.559 200.941 391.141 201.172 391.414 201.097C391.778 200.998 390.763 200.777 390.884 200.669C390.658 200.869 390.717 202.57 390.688 202.914C390.631 203.587 390.577 204.26 390.523 204.934C390.297 207.807 390.092 210.683 389.906 213.559C389.822 214.857 390.456 216.108 391.841 216.361C393.005 216.573 394.555 215.728 394.639 214.421Z" fill="#1F4038"/>
<path d="M400.324 213.277L328.567 200.199C327.463 199.998 326.227 199.629 325.096 199.747C322.925 199.972 321.963 201.768 321.611 203.697C321.28 205.515 320.948 207.333 320.617 209.151C319.957 212.768 319.032 216.441 318.641 220.095C318.405 222.298 319.826 223.97 321.918 224.432C322.35 224.527 322.792 224.591 323.227 224.671L329.178 225.755C336.076 227.012 342.972 228.269 349.87 229.527C357.996 231.008 366.122 232.489 374.249 233.97L392.192 237.24C393.367 237.454 394.545 237.72 395.728 237.884C398.443 238.261 399.998 236.47 400.452 233.979C401.138 230.218 401.824 226.455 402.509 222.694C402.818 221.002 403.239 219.29 403.422 217.581C403.656 215.398 402.319 213.883 400.324 213.277C399.079 212.898 397.741 214.04 397.527 215.216C397.271 216.619 398.213 217.638 399.461 218.017L398.678 216.884C398.628 217.161 398.577 217.439 398.527 217.716C398.449 218.141 398.372 218.566 398.294 218.99C398.135 219.863 397.976 220.737 397.817 221.61C397.49 223.403 397.162 225.198 396.836 226.991C396.515 228.751 396.194 230.512 395.873 232.271C395.804 232.647 395.623 233.155 395.642 233.535L395.567 233.949C396.774 233.508 397.151 233.246 396.698 233.165C396.684 233.156 396.661 233.163 396.646 233.155C396.408 233.023 395.961 233.03 395.696 232.982L326.186 220.313C325.145 220.124 323.822 219.641 322.756 219.688C322.71 219.69 322.647 219.65 322.601 219.66L323.384 220.793C323.434 220.516 323.485 220.238 323.535 219.961C323.613 219.536 323.69 219.112 323.768 218.687C323.927 217.814 324.086 216.94 324.245 216.067C324.893 212.513 325.541 208.96 326.189 205.406C326.258 205.031 326.439 204.522 326.42 204.142L326.495 203.728C325.288 204.169 324.911 204.431 325.364 204.513C325.378 204.521 325.401 204.514 325.416 204.522C325.503 204.571 325.651 204.556 325.747 204.582C326.232 204.717 326.759 204.767 327.255 204.857L399.461 218.017C402.507 218.572 403.375 213.833 400.324 213.277Z" fill="#1F4038"/>
<path d="M326.942 282.012C327.933 282.56 328.972 283.181 330.082 283.885C335.323 287.209 336.255 287.348 341.503 290.672L342.833 279.115C347.603 280.131 359.056 285.55 360.469 288.057C365.364 296.724 369.353 304.592 378.817 308.654C373.922 319.935 369.076 331.851 364.923 343.148C355.314 341.914 350.329 343.263 341.05 341.75C337.731 341.377 334.493 340.477 331.461 339.086C327.466 336.994 323.98 334.059 321.248 330.486C319.223 327.875 318.183 317.841 318.387 314.493C318.966 309.728 319.258 303.867 319.547 300.454C315.401 295.951 312.162 290.7 310.005 284.986C309.872 284.114 309.941 283.224 310.207 282.383C310.473 281.541 310.928 280.771 311.537 280.131C313.043 279.257 314.738 278.754 316.48 278.663C320.18 278.964 323.76 280.111 326.942 282.012Z" fill="white"/>
<path d="M510.865 254.909C506.273 257.783 502.343 261.589 499.335 266.078C497.341 269.257 494.817 272.88 491.914 276.749C495.528 266.521 494.823 262.369 495.423 257.517C495.574 251.04 494.865 244.571 493.315 238.278C493.138 237.619 492.74 237.04 492.186 236.637C491.633 236.234 490.958 236.03 490.273 236.06C482.634 236.33 472.167 233.257 464.797 228.938C460.087 226.108 456.665 221.573 455.251 216.287C452.635 208.018 454.737 189.595 455.897 184.858C452.433 183.553 447.523 179.837 448.241 177.824C449.125 176.124 450.278 174.577 451.656 173.241C453.948 170.568 455.571 169.791 457.491 166.623C460.653 161.419 460.804 153.602 461.808 147.863C462.17 145.365 462.669 142.888 463.304 140.444C466.096 134.995 468.508 132.463 472.245 132.063C474.715 131.809 497.181 137.705 499.997 142.031C504.831 149.469 515.327 158.044 523.157 165.887C525.854 168.581 528.745 176.828 530.13 184.445C532.726 183.044 535.651 182.357 538.603 182.454C540.564 182.649 542.425 183.405 543.961 184.632C544.932 185.408 545.737 186.369 546.33 187.458C546.922 188.547 547.289 189.744 547.409 190.976C547.439 193.486 546.931 195.973 545.919 198.272C545.09 200.491 544.014 202.611 542.711 204.592C543.237 207.674 543.601 210.962 548.453 218.788C550.86 222.513 553.995 225.719 557.673 228.216C552.406 234.069 549.448 241.617 549.344 249.468C536.626 245.239 521.865 247.866 510.865 254.909Z" fill="white"/>
<path d="M471.148 421.987C471.935 404.177 471.876 385.619 472.137 374.236C465.038 376.39 457.681 377.589 450.262 377.8C430.813 378.074 391.219 358.467 363.929 345.873C368.614 332.902 374.303 318.934 379.992 305.963C397.839 311.5 414.96 318.109 431.524 322.149C435.868 323.433 440.442 323.756 444.925 323.095C455.05 321.083 462.53 311.122 470.012 302.97C481.607 290.332 493.102 276.03 499.342 266.078C510.001 249.765 536.123 241.84 554.984 251.879C573.844 261.919 584.702 278.41 588.503 303.757C591.656 324.787 590.596 346.138 590.664 367.4C590.732 389.024 590.593 403.78 599.652 423.874L471.148 421.987Z" fill="white"/>
<path d="M364.075 343.037C355.013 341.989 350.052 343.218 341.05 341.75C337.731 341.377 334.493 340.477 331.461 339.086C327.466 336.994 323.98 334.059 321.248 330.486C319.223 327.875 318.183 317.841 318.387 314.493C318.966 309.728 319.258 303.867 319.547 300.454C315.401 295.951 312.162 290.7 310.004 284.986C309.872 284.114 309.941 283.224 310.207 282.383C310.473 281.541 310.928 280.771 311.537 280.131C313.043 279.257 314.738 278.754 316.479 278.663C321.024 279.003 324.728 280.489 330.083 283.885C335.325 287.209 336.257 287.348 341.505 290.672L350.5 296.729L364.075 343.037Z" fill="white"/>
<path d="M81.6617 176.329C82.8769 169.517 82.1586 162.064 81.3124 155.101C81.1617 153.345 80.66 151.637 79.8366 150.076C81.871 152.589 84.9564 156.213 87.2407 158.501C91.3957 162.721 95.8728 166.615 100.632 170.149C110.433 177.527 121.644 181.187 133.742 183.366C139.576 184.426 145.544 184.531 151.412 183.677L151.941 184.496C153.131 187.396 160.205 191.482 169.669 193.612L170.779 193.932C170.748 194.195 170.682 194.453 170.583 194.7C162.56 213.796 143.423 220.037 123.8 217.806C104.634 215.627 85.0483 207.398 70.9192 193.486C73.1842 191.885 75.1991 189.961 76.8988 187.776C79.3755 184.389 81.0079 180.465 81.6617 176.329Z" fill="white"/>
<path d="M173.908 175.137C180.742 170.683 186.645 164.957 191.294 158.276C196.233 151.242 201.556 142.532 203.842 133.992C207.161 120.977 208.275 107.503 207.14 94.1238C207.14 94.1238 207.063 93.1974 206.972 91.9597C202.922 91.1276 193.247 88.8392 187.714 87.2678C178.83 84.746 172.884 83.1925 167.117 81.1541C164.51 80.2322 159.404 78.1908 156.463 76.8244C158.571 78.8688 162.665 83.0817 161.834 84.6457C161.197 85.843 159.124 85.8744 157.443 85.9433C151.082 86.1017 144.73 85.3799 138.569 83.7986C126.365 81.0383 114.581 76.6858 103.525 70.8544C102.636 70.4054 101.662 69.8636 100.65 69.2739C100.177 71.3602 99.7886 73.0709 99.7886 73.0709C96.972 84.8423 92.1622 96.052 85.5647 106.221C84.8029 107.43 83.9254 108.562 82.9446 109.603C82.5901 110.069 82.1193 110.434 81.5789 110.663C81.1389 110.777 80.6796 110.798 80.2311 110.723C77.7193 110.392 75.2567 109.762 72.8963 108.846C70.5412 107.798 68.2283 106.802 65.7512 107.349C64.502 107.614 63.3285 108.154 62.3169 108.93C61.3053 109.705 60.4813 110.695 59.9057 111.829C59.0611 113.809 58.5469 115.912 58.3833 118.056C58.2764 124.59 58.9856 127.861 62.3647 133.572C64.5216 137.104 67.2719 140.242 70.496 142.851C72.6042 144.298 74.9382 146.452 78.9873 149.027C80.9163 151.47 84.6131 155.877 87.2392 158.508C91.3942 162.728 95.8713 166.623 100.63 170.157C110.432 177.535 121.642 181.194 133.74 183.373C147.697 185.872 162.086 182.922 173.908 175.137Z" fill="white"/>
<path d="M86.2258 20.0548C93.127 9.51558 113.4 1.77955 137.77 4.00054C152.867 5.37443 165.85 9.68769 177.452 17.9296C188.829 26.354 193.515 31.233 199.761 43.8705C206.626 57.7621 210.377 76.2513 207.817 92.1364C207.694 92.108 207.624 92.0945 207.624 92.0945C204.068 91.4016 193.571 88.9351 187.715 87.2724C178.83 84.7506 172.884 83.1971 167.117 81.1587C164.511 80.2383 159.407 78.1969 156.469 76.8275C158.577 78.8809 162.664 83.0878 161.834 84.6503C161.197 85.8476 159.124 85.879 157.443 85.9479C151.082 86.1063 144.73 85.3845 138.569 83.8032C126.365 81.0429 114.581 76.6904 103.525 70.859C102.636 70.41 101.662 69.8682 100.651 69.2785L99.7887 73.0755C96.972 84.8469 92.1622 96.0566 85.5648 106.226C84.8029 107.434 83.9255 108.567 82.9446 109.608C82.5902 110.073 82.1194 110.439 81.5789 110.668C81.1389 110.782 80.6796 110.802 80.2312 110.727C77.7194 110.396 75.2568 109.766 72.8963 108.851C70.5413 107.803 68.2283 106.806 65.7513 107.354C64.5021 107.619 63.3285 108.159 62.3169 108.934C61.3053 109.709 60.4814 110.7 59.9057 111.833C59.5263 112.689 59.2205 113.575 58.9917 114.482C58.1259 112.101 57.4663 110.292 57.4663 110.292C50.8995 95.625 48.835 73.4481 54.9531 53.133C57.9196 43.2853 68.1094 30.6508 75.5827 27.9434L86.2258 20.0548Z" fill="white"/>
<path d="M128.976 356.71C138.63 354.36 147.561 348.967 155.132 342.435C158.012 339.951 161.836 337.106 165.231 338.831C168.113 340.297 168.588 344.453 167.099 347.31C164.957 351.022 162.341 354.442 159.316 357.487C148.939 367.122 136.276 373.987 122.507 377.441C106.414 381.265 88.5192 374.041 72.8286 380.072C72.0829 379.268 71.1677 378.636 70.1483 378.224C65.1219 375.422 63.1764 369.195 62.7201 363.485C62.2924 359.792 62.7089 356.05 63.9383 352.539C64.596 350.855 65.5666 349.309 66.7994 347.982L71.5622 348.907C76.8627 349.933 82.9944 350.764 87.1037 347.28C88.6547 345.698 90.0527 343.975 91.2794 342.133C95.1192 337.375 101.174 334.8 107.241 333.927C113.353 333.306 119.519 333.448 125.595 334.348C127.553 334.556 129.715 334.867 130.974 336.371C133.189 339.017 130.823 343.208 127.717 344.725C124.611 346.243 120.941 346.307 117.828 347.82C114.716 349.333 112.34 353.507 114.54 356.165C115.922 357.835 118.393 358.038 120.563 357.937C123.401 357.8 126.218 357.389 128.976 356.71Z" fill="white"/>
<path d="M290.028 380.933C290.859 380.654 291.618 380.196 292.249 379.592C292.88 378.987 293.369 378.251 293.68 377.436C293.99 376.621 294.116 375.748 294.046 374.879C293.977 374.011 293.714 373.168 293.278 372.412C292.216 370.558 287.264 367.923 287.023 367.397C289.769 368.155 292.667 368.187 295.43 367.489C297.95 366.926 300.098 365.616 300.453 363.074C300.578 361.984 300.413 360.88 299.976 359.873C299.539 358.866 298.844 357.99 297.961 357.333C296.195 355.95 288.566 352.843 286.633 351.702C278.931 347.253 271.618 342.169 264.771 336.504C263.753 335.764 262.993 334.725 262.6 333.533C262.276 332.336 264.276 330.453 264.627 330.365C268.503 330.731 272.414 330.295 276.112 329.084C277.121 328.808 278.059 328.323 278.866 327.661C281.334 325.399 280.12 320.981 277.375 319.063C274.63 317.144 271.051 317.014 267.693 316.954C258.031 316.78 246.319 317.127 236 317.141C226.938 318.488 219.98 325.992 215.018 331.866C213.414 333.576 212.154 335.576 211.306 337.757C210.82 339.475 210.583 341.252 210.601 343.037C210.433 348.434 210.642 354.14 213.494 358.736C215.065 361.153 216.808 363.453 218.712 365.621C223.516 370.842 228.905 375.499 234.774 379.502C241.249 384.013 248.897 387.226 256.806 387.183C260.225 387.165 264.112 386.25 265.389 382.824C267.188 384.057 269.121 385.087 271.15 385.894C273.655 386.919 276.44 387.05 279.031 386.265C281.32 385.465 283.388 382.845 282.162 380.765L280.521 377.972C282.478 379.286 285.699 381.103 287.648 381.249C288.455 381.307 289.265 381.2 290.028 380.933Z" fill="white"/>
<path d="M517.974 90.7474C525.213 90.0732 532.499 90.0657 539.739 90.725C566.505 93.1091 588.634 106.384 600.391 130.355C606.008 141.805 607.35 156.983 605.436 169.567C603.221 184.138 595.528 198.776 586.267 206.753C577.97 213.877 567.253 218.171 559.664 226.043C558.961 226.775 558.297 227.5 557.672 228.221C553.995 225.722 550.86 222.516 548.453 218.792C543.601 210.966 543.237 207.678 542.711 204.597C544.014 202.615 545.09 200.495 545.919 198.277C546.931 195.977 547.439 193.49 547.409 190.98C547.289 189.748 546.922 188.552 546.33 187.462C545.737 186.373 544.932 185.412 543.961 184.636C542.425 183.41 540.564 182.653 538.603 182.459C535.651 182.361 532.726 183.048 530.13 184.449C528.745 176.83 525.854 168.585 523.157 165.891C515.327 158.049 504.831 149.473 499.997 142.035C497.182 137.71 474.715 131.813 472.245 132.068C468.506 132.467 466.093 135.002 463.301 140.461C465.239 132.921 468.258 125.697 472.265 119.011C476.446 112.136 481.993 106.179 488.566 101.504C495.14 96.8291 502.602 93.5338 510.499 91.819C512.97 91.3324 515.465 90.9747 517.974 90.7474Z" fill="#D98A58"/>
<path d="M14.5536 237.907C18.535 229.204 40.4822 205.088 69.9208 192.483C84.1176 207 104.18 215.576 123.8 217.806C143.421 220.036 162.56 213.796 170.583 194.698C170.583 194.698 171.105 193.249 171.724 191.521C176.436 192.987 204.262 200.86 205.739 201.502C213.87 205.056 221.55 209.917 226.512 216.541C229.088 219.963 231.452 223.538 233.589 227.247C236.176 231.76 238.489 236.424 240.516 241.213C241.922 244.479 262.574 287.58 265.953 313.799L262.531 316.907C254.032 316.891 244.547 317.126 236.003 317.138C226.941 318.485 219.983 325.989 215.021 331.863C213.417 333.573 212.157 335.573 211.309 337.754C210.823 339.472 210.586 341.25 210.604 343.034C210.436 348.431 210.645 354.137 213.497 358.733C213.78 359.182 214.178 359.781 214.631 360.422L211.609 363.168C211.773 377.621 214.239 405.299 215.626 424.405L41.4625 422.837C40.6237 411.072 39.8407 401.067 39.0728 389.178C37.6834 388.922 36.3182 388.55 34.992 388.066C21.6415 382.64 12.066 370.096 8.12982 356.602C5.01431 345.919 4.35626 332.409 4.02798 321.291C3.14108 291.457 2.82483 263.554 14.5536 237.907ZM62.72 363.473C63.1718 369.183 65.1218 375.41 70.1482 378.212C71.1676 378.624 72.0829 379.256 72.8286 380.06C88.5191 374.029 106.408 381.258 122.507 377.429C136.273 373.975 148.934 367.113 159.31 357.481C162.334 354.436 164.95 351.015 167.092 347.304C168.582 344.447 168.107 340.291 165.225 338.825C161.83 337.1 158.006 339.945 155.126 342.429C147.554 348.961 138.624 354.354 128.97 356.704C126.213 357.38 123.397 357.789 120.561 357.925C118.388 358.026 115.917 357.824 114.538 356.153C112.338 353.495 114.716 349.32 117.827 347.808C120.938 346.297 124.603 346.231 127.715 344.713C130.828 343.196 133.188 339.005 130.973 336.359C129.714 334.862 127.551 334.544 125.594 334.336C119.517 333.436 113.351 333.294 107.239 333.915C101.166 334.789 95.1115 337.357 91.2778 342.121C90.0511 343.963 88.6531 345.686 87.1022 347.268C82.9928 350.752 76.8626 349.921 71.5607 348.895L66.7978 347.97C65.565 349.297 64.5944 350.843 63.9367 352.527C62.7069 356.04 62.291 359.784 62.72 363.479V363.473Z" fill="#D98A58"/>
<path d="M115.333 111.522C114.457 115.105 115.658 123.155 122.411 123.441C131.271 122.856 131.144 113.044 127.884 108.624C125.208 105.003 117.931 103.865 115.333 111.522Z" fill="#1F4038"/>
<path d="M151.344 2.49368C137.602 -0.771503 123.284 -0.826343 109.518 2.3345C99.5613 4.76802 88.9636 9.47221 83.1046 18.2378L83.1065 18.232C80.5226 22.0962 86.7878 25.6895 89.3477 21.857C90.5422 20.1776 91.9602 18.6667 93.5636 17.3667C95.4901 15.8519 97.5682 14.5372 99.7647 13.4439C105.151 10.8184 110.913 9.03625 116.847 8.1597C129.532 6.19511 142.5 7.10587 154.781 10.8247C165.981 14.2748 176.208 20.2937 184.637 28.395C192.202 35.5593 197.207 45.316 200.496 55.0933C203.993 65.4896 205.842 76.8257 204.754 87.8189C201.647 87.1291 198.554 86.3667 195.471 85.5962C186.367 83.3184 177.165 80.8894 168.311 77.772C164.992 76.6371 161.739 75.3253 158.561 73.8472C158.108 73.4871 157.629 73.267 157.149 73.1617C153.332 71.1623 149.668 68.8847 146.191 66.3452H146.192C145.363 65.8722 144.379 65.7419 143.454 65.9829C142.529 66.2241 141.737 66.8177 141.248 67.6343C140.789 68.4624 140.668 69.4347 140.909 70.3492C141.151 71.2636 141.736 72.0517 142.545 72.5493C146.264 75.2872 150.216 77.6973 154.353 79.7574C155.221 80.5853 156.034 81.4671 156.794 82.3931C155.605 82.4328 154.414 82.426 153.225 82.3687C142.952 82.0244 132.532 78.9212 122.925 75.5015C112.517 71.9362 102.694 66.867 93.7725 60.4566C92.9432 59.9826 91.9596 59.8522 91.0343 60.0933C90.1089 60.3344 89.3159 60.9273 88.8272 61.7447C88.3719 62.5736 88.2522 63.5449 88.4932 64.4585C88.7343 65.372 89.3182 66.1595 90.1241 66.6597C92.2613 68.22 94.4574 69.6965 96.7061 71.0874C96.5332 71.384 96.3938 71.726 96.3009 72.1167C93.5572 83.4717 88.9329 94.2934 82.6192 104.14C82.5586 104.224 82.5008 104.311 82.4473 104.4C82.1272 104.934 81.7754 105.448 81.3936 105.94L81.9581 105.212C81.4695 105.898 80.9239 106.542 80.3292 107.137C80.3168 107.136 80.3044 107.135 80.2921 107.134C78.4019 106.818 76.5433 106.336 74.7403 105.689C74.6422 105.662 74.5432 105.639 74.4434 105.621C71.1766 104.192 67.8575 102.991 64.2462 104.02C62.7018 104.453 61.2585 105.185 59.9991 106.173C59.9103 106.243 59.8251 106.317 59.7384 106.389C57.7483 101.242 56.3876 95.8722 55.6895 90.396C53.8438 77.92 54.8843 65.1896 58.7325 53.1734C60.5011 48.3457 63.1288 43.8734 66.4903 39.9702C68.1317 37.9728 69.9395 36.1161 71.8946 34.4204C72.7248 33.7046 73.6102 33.0543 74.5421 32.4751C74.9592 32.2162 75.3883 31.9855 75.8175 31.7505C76.041 31.6019 76.2857 31.4872 76.543 31.4097H76.545C77.4576 31.1387 78.23 30.5278 78.7003 29.7046C79.1705 28.8814 79.302 27.9094 79.0684 26.9917C78.8075 26.0771 78.1951 25.3009 77.3634 24.8316C76.5316 24.3623 75.547 24.2369 74.6231 24.4829C68.7656 26.7099 64.116 31.3815 60.3184 36.2066C56.4646 40.8887 53.4904 46.2227 51.5391 51.9527C49.421 58.9212 48.1751 66.1226 47.8301 73.3941C46.931 86.6269 49.1626 99.8854 54.3458 112.107C54.6377 112.595 55.0393 113.003 55.5118 113.304C54.2894 117.666 54.5222 122.602 55.5264 126.841C58.1332 137.842 67.3177 145.669 76.3507 151.59C77.2393 152.704 77.7318 154.081 77.7481 155.503C78.0101 157.352 78.1754 159.224 78.338 161.083C78.7238 164.892 78.7861 168.728 78.5245 172.548C78.3061 176.093 77.3824 179.56 75.8057 182.747C74.5151 185.091 72.8355 187.192 70.8477 188.966C70.2644 188.816 69.6746 188.846 69.1221 189.01C68.7664 189.083 68.4203 189.209 68.0958 189.384C65.4226 190.533 62.7939 191.775 60.21 193.112C50.4074 198.253 41.2325 204.498 32.8663 211.724C26.3915 217.154 20.522 223.259 15.3594 229.935C10.1163 236.855 7.31628 245.369 5.09674 253.661C2.09155 265.596 0.44928 277.83 0.200256 290.13C-0.231873 302.658 0.0839844 315.248 0.642639 327.769C1.16516 339.486 1.99225 351.847 6.48248 362.826C10.4963 373.101 17.629 381.881 26.8907 387.944C29.7049 389.717 32.6348 391.019 35.6465 391.922C36.3238 402.235 37.1096 412.539 37.8448 422.847C37.8626 423.794 38.2493 424.698 38.9229 425.368C39.5968 426.037 40.5063 426.421 41.459 426.439C42.4149 426.431 43.33 426.05 44.0059 425.378C44.6818 424.707 45.065 423.797 45.0733 422.847C44.3721 413.016 43.6241 403.188 42.9688 393.353C47.4839 393.803 52.1192 393.536 56.7784 392.756C62.3408 392.008 67.6934 390.149 72.5137 387.291C74.3867 386.058 76.1518 384.481 76.6895 382.516C76.8798 382.496 77.0756 382.462 77.2764 382.411C88.0129 379.684 99.1985 382.083 110.087 382.206C121.155 382.11 132.03 379.317 141.759 374.071C145.816 372.002 149.702 369.619 153.382 366.943C156.861 364.549 160.102 361.83 163.062 358.824C167.82 353.708 174.958 345.213 169.739 338.124C166.663 333.954 161.301 334.104 157.13 336.499C153.247 338.727 150.081 342.15 146.391 344.687C138.958 349.799 130.328 353.768 121.19 354.31C120.307 354.362 118.017 354.712 117.353 353.988C116.886 353.48 118.178 351.868 118.789 351.418C120.51 350.146 122.977 349.943 125.005 349.432C127.382 348.94 129.619 347.925 131.549 346.46C134.843 343.753 136.738 338.835 134.382 334.944C131.733 330.566 125.671 330.711 121.192 330.304C111.528 329.427 100.925 329.743 92.8272 335.77C90.7563 337.324 88.9332 339.181 87.42 341.276C86.4987 342.863 85.2276 344.221 83.7022 345.25C81.1394 346.614 77.952 346.38 75.0196 345.895C75.202 345.264 75.2087 344.59 75.0303 343.947C74.7755 343.029 74.1636 342.248 73.3302 341.778C72.4966 341.308 71.5091 341.186 70.585 341.439C67.961 342.302 65.6197 343.854 63.8087 345.929C59.8698 350.566 58.7113 356.563 59.044 362.502C59.3287 367.585 60.4393 372.91 63.5743 377.055C64.3565 378.119 65.2726 379.08 66.2999 379.914C66.9094 380.502 67.5958 381.002 68.337 381.407C68.2378 381.474 68.1383 381.539 68.0372 381.598C66.9821 382.185 65.8871 382.698 64.7608 383.134C60.1162 384.975 55.2029 386.062 50.211 386.351C45.8356 386.734 41.4263 386.287 37.2188 385.034C32.6492 383.45 28.4875 380.883 25.0323 377.515C17.6503 370.521 12.597 361.45 10.5508 351.519C8.02863 340.274 7.82837 328.611 7.51666 317.141C7.02429 304.97 7.16895 292.78 7.95026 280.624C8.71484 269.056 11.0343 257.641 14.8458 246.685C15.9662 243.213 17.4781 239.877 19.3516 236.742C20.9125 234.32 22.6748 232.033 24.6212 229.905C36.6885 216.162 51.4722 205.056 68.0343 197.265C68.3277 197.44 68.6467 197.576 68.9835 197.664C69.3923 197.77 69.8124 197.803 70.2257 197.767C77.1923 204.162 85.1697 209.391 93.8477 213.236C109.827 220.376 129.164 224.637 146.437 219.876C154.098 217.865 161.026 213.728 166.412 207.95C169.219 204.851 171.528 201.339 173.258 197.541C173.537 197.053 173.766 196.539 173.941 196.008C176.046 196.621 178.182 197.158 180.267 197.76C185.736 199.324 191.2 200.904 196.66 202.501C198.574 203.057 200.482 203.613 202.382 204.189C202.933 204.357 203.487 204.525 204.038 204.702C204.207 204.754 204.376 204.808 204.541 204.868C205.212 205.107 203.367 204.296 205.063 205.107C212.156 208.5 219.095 212.541 223.843 218.963C230.194 227.557 234.652 237.041 239.064 246.703C243.569 256.58 247.67 266.173 251.519 276.336C253.941 282.721 256.197 289.171 258.144 295.714C259.095 298.913 259.972 302.135 260.725 305.387C261.307 307.897 261.937 311.044 262.264 313.324C260.359 313.322 258.453 313.332 256.548 313.347C249.692 313.41 242.837 313.547 235.982 313.56C235.61 313.561 235.268 313.606 234.956 313.691C225.893 315.214 218.848 321.866 213.111 328.569C209.856 332.366 207.525 335.942 207.088 341.03C206.626 345.56 206.902 350.135 207.903 354.579C208.372 356.465 209.113 358.27 210.044 359.997C208.875 360.473 207.975 361.529 207.996 363.171C208.249 383.608 210.531 404.037 212.014 424.409C212.032 425.356 212.418 426.26 213.092 426.929C213.766 427.599 214.675 427.983 215.628 428.001C216.584 427.992 217.498 427.611 218.174 426.939C218.85 426.267 219.234 425.359 219.242 424.409C217.859 405.405 215.786 386.352 215.304 367.29C217.268 369.497 219.393 371.546 221.43 373.446C227.841 379.425 235.171 384.953 243.394 388.179C250.139 390.825 260.428 392.871 266.316 387.59C270.353 389.794 275.147 391.262 279.678 389.834C282.464 388.955 284.689 386.963 285.587 384.507C285.769 384.553 285.952 384.597 286.136 384.635C287.702 384.935 289.319 384.844 290.841 384.372C292.363 383.899 293.745 383.058 294.86 381.925C295.976 380.793 296.791 379.402 297.234 377.879C297.677 376.357 297.734 374.748 297.399 373.199C297.229 372.369 296.938 371.629 296.558 370.958C299.794 370.094 302.59 368.258 303.686 364.988C305.396 359.879 302.002 355.226 297.613 352.981C294.251 351.263 290.682 349.946 287.434 348.012C283.267 345.528 279.18 342.923 275.252 340.08C273.037 338.477 270.873 336.808 268.733 335.107C268.298 334.761 267.845 334.423 267.414 334.067C269.995 334.057 272.57 333.74 275.081 333.118C278.239 332.332 281.519 331.08 282.993 327.981C285.815 322.028 281.105 315.939 275.425 314.245C273.479 313.775 271.495 313.485 269.5 313.375C267.454 298.272 262.171 283.66 256.607 269.531C252.848 259.989 248.747 250.574 244.471 241.245C242.074 236.016 239.763 230.776 236.902 225.774C233.846 220.022 230.018 214.71 225.524 209.982C220.044 204.652 213.492 200.533 206.3 197.894C202.889 196.689 199.339 195.8 195.866 194.792C190.855 193.347 185.844 191.899 180.835 190.451C177.928 189.61 174.909 188.912 172.07 187.856L172.057 187.841C171.323 187.646 170.55 187.685 169.847 187.945C169.716 187.941 169.584 187.943 169.452 187.951C168.788 187.991 168.141 188.178 167.559 188.498V188.494C167.259 188.671 166.989 188.887 166.756 189.136C165.888 188.875 165.026 188.593 164.171 188.29C163.676 188.112 163.183 187.927 162.693 187.733C162.665 187.722 162.587 187.691 162.5 187.657C162.406 187.616 162.1 187.49 162.037 187.462C161.218 187.105 160.414 186.72 159.628 186.305C159.312 186.136 158.998 185.961 158.688 185.783C168.261 183.197 177.095 178.332 184.4 171.564C189.136 167.114 193.294 162.094 196.779 156.622C200.941 150.597 204.27 144.043 206.676 137.137C208.863 129.899 210.219 122.438 210.72 114.897C211.277 108.255 211.308 101.58 210.815 94.9331C210.938 94.7048 211.038 94.4627 211.11 94.2095C213.579 78.705 211.696 62.8234 205.666 48.315C201.341 37.6114 195.397 27.8675 186.453 20.4009C176.367 11.7162 164.324 5.57373 151.344 2.49368ZM236.225 320.742C247.472 320.709 258.834 319.985 270.067 320.632C272.008 320.553 273.924 321.094 275.533 322.174C276.179 322.754 276.829 324.166 276.528 324.797C275.95 326.002 272.507 326.401 271.151 326.623C268.976 326.813 266.791 326.867 264.608 326.784C262.436 326.871 260.582 328.825 259.64 330.648C259.117 331.702 258.918 332.887 259.066 334.053C259.215 335.219 259.706 336.316 260.477 337.208C262.104 339.078 263.978 340.723 266.048 342.095C267.889 343.514 269.737 344.925 271.619 346.287C277.469 350.603 283.733 354.336 290.318 357.434C291.83 358.122 293.356 358.816 294.814 359.62C295.818 360.167 296.596 360.568 296.848 361.865C297.431 364.871 290.59 364.557 288.867 364.198L288.849 364.196C288.762 364.178 288.675 364.163 288.59 364.151C287.492 363.396 286.391 362.64 285.306 361.869C280.25 358.274 275.207 354.661 270.174 351.033C270.2 350.757 270.194 350.478 270.156 350.202C270.092 349.735 269.936 349.284 269.696 348.876C269.457 348.469 269.139 348.113 268.761 347.828C268.383 347.543 267.951 347.334 267.492 347.214C267.033 347.095 266.554 347.066 266.084 347.13C265.614 347.195 265.161 347.35 264.751 347.588C256.23 352.274 247.874 357.458 240.87 364.248C240.193 364.922 239.813 365.837 239.814 366.791C239.815 367.744 240.197 368.658 240.875 369.332C241.052 369.507 241.246 369.662 241.452 369.795C242.354 371.654 243.836 373.185 245.691 374.147C247.952 375.637 250.211 377.126 252.468 378.615C254.87 380.196 257.252 381.832 259.657 383.428C257.259 384.108 253.817 383.539 252.058 383.21C247.947 382.415 244.003 380.928 240.396 378.815C234.194 375.126 228.52 370.622 223.53 365.425C219.221 361.067 215.093 356.231 214.384 349.946C214.198 348.066 214.134 346.175 214.192 344.287C214.09 342.408 214.294 340.525 214.795 338.711C215.864 335.739 218.541 333.195 220.649 330.907C224.946 326.252 229.88 322.031 236.225 320.742ZM254.163 362.547C259.591 367.186 265.255 371.547 271.131 375.611C273.486 377.32 275.966 379.403 278.604 381.165C278.652 381.656 278.799 382.137 279.042 382.578C278.682 381.814 278.233 382.764 277.433 382.999C276.098 383.317 274.7 383.265 273.394 382.848C270.211 381.989 267.44 379.894 264.73 378.098L255.496 372.005L251.186 369.162C250.623 368.792 248.768 367.957 248.204 367.28C250.111 365.596 252.102 364.029 254.163 362.547ZM264.661 355.891C270.017 359.758 275.387 363.608 280.771 367.439C282.856 368.926 284.937 370.443 287.072 371.868C287.805 372.358 288.561 372.835 289.247 373.391C289.591 373.647 289.907 373.939 290.189 374.261C290.343 374.456 290.187 373.993 290.304 374.59C290.409 374.929 290.437 375.288 290.386 375.639C290.334 375.99 290.205 376.326 290.007 376.622C289.809 376.917 289.547 377.165 289.241 377.347C288.935 377.53 288.592 377.644 288.236 377.678C287.74 377.772 287.361 377.589 286.556 377.257C285.616 376.844 284.707 376.363 283.837 375.819C279.314 373.128 275.151 369.686 270.899 366.594C267.271 364.032 263.764 361.305 260.386 358.426C261.79 357.561 263.217 356.718 264.661 355.891ZM95.4171 342.937C102.924 335.744 114.639 336.796 124.126 337.781C124.911 337.863 127.58 337.875 128.166 338.54C128.645 339.083 127.429 340.574 126.827 341.053C125.303 342.261 123.006 342.515 121.174 342.957C118.962 343.372 116.845 344.189 114.93 345.365C111.516 347.738 108.996 352.166 110.545 356.322C112.283 360.984 117.411 361.787 121.805 361.451C130.726 360.636 139.324 357.718 146.883 352.939C150.683 350.564 154.293 347.903 157.683 344.978C159.013 343.58 160.679 342.54 162.524 341.956C163.641 341.777 163.974 342.165 164.212 343.063C164.891 345.625 161.982 348.816 160.413 350.836C158.173 353.632 155.616 356.163 152.796 358.379C146.199 363.765 138.776 368.067 130.812 371.123C126.688 372.78 122.386 373.961 117.991 374.644C113.368 375.135 108.707 375.182 104.074 374.784C94.4793 374.202 84.8105 373.088 75.3555 375.483C74.7043 375.648 74.1876 375.935 73.793 376.299C72.6857 375.576 71.466 374.981 70.4405 374.01C67.0751 370.823 66.3057 365.591 66.2169 361.191C66.1505 357.907 66.705 353.908 68.753 351.152C69.2226 351.732 69.8633 352.16 70.5928 352.368C75.1794 353.245 80.2133 354.082 84.7667 352.568C87.145 351.799 89.2705 350.407 90.919 348.538C92.5 346.722 93.6689 344.612 95.4171 342.937ZM85.672 161.999C93.7174 170.145 102.993 177.12 113.628 181.474C124.837 186.07 137.382 188.658 149.523 187.485C150.026 188.2 150.632 188.842 151.326 189.384C152.699 190.537 154.189 191.543 155.773 192.387C158.976 194.061 162.347 195.39 165.826 196.359C165.733 196.524 165.637 196.688 165.539 196.85C164.685 198.417 163.705 199.914 162.611 201.327C160.445 204.078 157.836 206.456 154.889 208.361C143.079 215.968 128.193 215.632 114.942 212.702C100.637 209.712 87.3807 203.116 76.422 193.591C78.5646 191.545 80.4165 189.204 81.9112 186.628C84.0713 182.431 85.3602 177.844 85.7003 173.141C85.9825 169.431 85.9722 165.705 85.672 161.999ZM103.099 74.7329C104.796 75.6227 106.517 76.4679 108.263 77.2632C119.585 82.541 131.552 86.3276 143.86 88.5279C147.287 89.1466 150.758 89.4971 154.24 89.5757C157.327 89.6221 161.59 89.968 163.999 87.6441C165.079 86.5992 165.535 85.4613 165.56 84.2935C170.652 86.1343 175.825 87.7499 181.066 89.1304C188.529 91.2241 196.018 93.2918 203.602 94.9214C204.138 102.137 204.055 109.386 203.351 116.588C202.786 124.208 201.113 131.706 198.382 138.847C195.64 145.067 192.221 150.971 188.186 156.451C184.893 161.101 180.968 165.275 176.521 168.853C168.077 175.699 157.71 179.783 146.841 180.544C140.962 180.801 135.076 180.217 129.364 178.809C123.211 177.511 117.243 175.459 111.596 172.704C100.367 167.026 90.9649 157.943 83.0421 148.315C82.6929 147.757 82.2825 147.244 81.7999 146.789C81.5547 146.48 81.2421 146.196 80.8565 145.948C73.6799 141.328 66.7311 135.872 63.3897 127.746C61.8249 123.886 61.4903 119.642 62.4307 115.587C62.5295 114.757 62.809 113.957 63.2511 113.246C63.6932 112.534 64.2873 111.927 64.9903 111.467C67.1286 110.207 69.2174 111.122 71.2999 112.047L71.3009 112.043C71.5995 112.208 71.9175 112.327 72.2442 112.404C72.4292 112.49 72.6215 112.562 72.8194 112.617C74.1098 113.07 75.4244 113.453 76.7569 113.764C78.3569 114.217 80.0244 114.388 81.6837 114.269C83.417 113.951 84.9632 112.987 86.0069 111.575C87.0064 110.478 87.9039 109.292 88.6876 108.034C95.2882 97.7881 100.156 86.5387 103.099 74.7329ZM160.357 144.953C156.473 145.137 152.584 144.964 148.699 145.123C146.525 145.202 144.357 145.427 142.213 145.796C141.066 145.903 139.955 146.247 138.95 146.807C137.946 147.367 137.07 148.13 136.381 149.047C133.944 152.777 135.908 157.005 138.298 160.157C140.146 162.655 142.161 165.027 144.33 167.255C144.666 167.589 145.065 167.853 145.503 168.034C145.942 168.214 146.412 168.307 146.887 168.307C147.361 168.307 147.831 168.213 148.27 168.033C148.708 167.852 149.106 167.588 149.441 167.254C149.777 166.921 150.044 166.524 150.226 166.088C150.407 165.653 150.5 165.185 150.5 164.713C150.5 164.242 150.406 163.775 150.225 163.339C150.043 162.904 149.777 162.508 149.441 162.174C147.679 160.365 146.022 158.455 144.48 156.457C145.023 157.143 144.464 156.43 144.382 156.322C144.235 156.128 144.091 155.932 143.949 155.733C143.541 155.163 143.175 154.564 142.818 153.965C142.355 153.18 142.859 154.365 142.601 153.498C142.556 153.362 142.519 153.223 142.485 153.085C142.915 152.981 143.343 152.878 143.777 152.793C144.124 152.728 144.478 152.669 144.832 152.612C145.661 152.48 144.547 152.621 145.321 152.553C146.951 152.416 148.575 152.302 150.212 152.266C153.59 152.193 156.969 152.302 160.345 152.142L160.357 152.136C161.308 152.116 162.216 151.731 162.89 151.062C163.563 150.393 163.95 149.491 163.971 148.544C163.964 147.594 163.581 146.683 162.904 146.011C162.228 145.339 161.313 144.959 160.357 144.953ZM157.077 121.943C156.244 121.473 155.256 121.351 154.332 121.604C153.408 121.857 152.623 122.465 152.149 123.293C151.676 124.122 151.553 125.104 151.808 126.022C152.13 127.001 152.431 127.986 152.719 128.976C152.786 129.186 152.849 129.397 152.911 129.608C152.747 129.649 152.584 129.702 152.427 129.766C151.987 129.946 151.589 130.212 151.254 130.547C150.576 131.221 150.195 132.135 150.195 133.087C150.196 134.04 150.576 134.953 151.254 135.626C151.947 136.279 152.859 136.652 153.814 136.674C153.841 136.676 153.868 136.681 153.896 136.683C154.152 136.719 154.409 136.752 154.666 136.769C155.172 136.777 155.677 136.73 156.172 136.629C157.003 136.481 157.792 136.155 158.484 135.674C159.136 135.243 159.674 134.661 160.049 133.978C160.424 133.295 160.627 132.531 160.64 131.753C160.636 130.992 160.531 130.234 160.328 129.5C159.904 127.678 159.353 125.879 158.768 124.103L158.776 124.112C158.522 123.194 157.911 122.413 157.077 121.943ZM182.057 103.732C179.802 100.097 173.296 98.6846 170.637 106.022C169.699 109.472 170.445 117.354 176.51 117.918C184.511 117.724 184.811 108.172 182.057 103.732Z" fill="#1F4038"/>
<path d="M527.873 181.562C533.131 179.018 538.891 177.637 544.323 180.555C546.749 181.921 548.679 184.016 549.833 186.54C550.987 189.063 551.307 191.885 550.746 194.601C549.742 199.885 547.388 204.825 543.91 208.944C542.211 211.038 540.058 212.724 537.612 213.874C535.166 215.025 532.49 215.611 529.784 215.589C528.825 215.589 527.906 215.211 527.228 214.537C526.551 213.864 526.17 212.95 526.17 211.998C526.17 211.045 526.551 210.131 527.228 209.458C527.906 208.784 528.825 208.406 529.784 208.406C537.137 208.705 541.529 200.997 543.305 194.786C544.187 191.702 543.857 188.733 541.07 186.986C538.123 185.139 534.595 186.28 531.522 187.769C530.688 188.225 529.711 188.346 528.79 188.106C527.87 187.866 527.078 187.283 526.578 186.479C526.103 185.654 525.972 184.677 526.215 183.758C526.457 182.839 527.053 182.052 527.875 181.565L527.873 181.562Z" fill="#1F4038"/>
<path d="M454.936 188.327C451.293 186.877 447.077 184.496 445.245 180.874C443.07 176.577 447.202 172.689 449.931 169.787C451.331 168.5 452.636 167.116 453.837 165.644C454.957 163.967 455.763 162.103 456.216 160.141C457.342 155.81 457.58 151.311 458.324 146.915C458.585 146.001 459.198 145.226 460.03 144.756C460.861 144.287 461.845 144.162 462.769 144.407C463.681 144.679 464.452 145.29 464.922 146.113C465.392 146.936 465.524 147.908 465.291 148.825C463.975 156.618 463.936 164.755 458.643 171.165C457.543 172.496 456.22 173.611 455.04 174.866C453.896 176.085 452.932 177.523 451.819 178.707C451.635 179.066 451.59 179.132 451.68 178.904C451.839 178.508 451.845 178.067 451.697 177.666C451.808 177.367 451.299 177.405 451.718 177.704C452.072 177.957 452.524 178.623 453.058 179.072C454.198 180.036 455.478 180.821 456.856 181.401C457.764 181.678 458.531 182.29 459 183.111C459.47 183.933 459.605 184.901 459.38 185.819C459.119 186.734 458.507 187.51 457.675 187.979C456.843 188.449 455.86 188.574 454.936 188.327Z" fill="#1F4038"/>
<path d="M545.73 249.471C545.923 244.389 547.068 239.387 549.108 234.722C551.379 230.007 554.532 225.765 558.4 222.222C566.297 214.739 576.738 210.68 584.696 203.332C592.537 196.093 597.673 185.938 600.432 175.769C603.238 165.17 603.448 154.057 601.046 143.361C596.877 124.775 583.118 109.291 566.002 101.203C557.431 97.3001 548.232 94.9402 538.832 94.2331C528.35 93.3112 517.09 93.4219 506.927 96.4092C497.283 99.3315 488.621 104.806 481.867 112.246C474.837 120.23 469.798 129.747 467.159 140.027C466.355 142.919 465.732 145.857 465.291 148.825C465.031 149.741 464.419 150.517 463.587 150.987C462.755 151.457 461.77 151.582 460.846 151.335C459.935 151.061 459.165 150.45 458.695 149.627C458.225 148.804 458.092 147.833 458.322 146.916C461.623 124.602 474.752 103.174 495.546 93.1585C505.835 88.2032 516.99 86.7231 528.328 86.6467C539.083 86.4396 549.801 87.9675 560.064 91.171C569.603 94.2231 578.413 99.1835 585.95 105.747C593.488 112.31 599.594 120.338 603.892 129.335C613.831 150.627 611.28 177.536 598.855 197.259C596.021 201.913 592.48 206.103 588.357 209.681C583.8 213.283 579.007 216.582 574.011 219.554C565.312 225.079 556.727 231.955 554.011 242.331C553.421 244.673 553.068 247.067 552.957 249.479C552.696 254.075 545.467 254.105 545.729 249.479L545.73 249.471Z" fill="#1F4038"/>
<path d="M459.381 185.819C458.166 191.555 457.577 197.405 457.624 203.268C457.505 210.08 457.788 217.219 462.692 222.631C465.273 225.202 468.381 227.188 471.806 228.454C475.779 230.155 479.946 231.369 484.214 232.072C488.302 232.739 493.387 231.501 496.004 235.536C496.857 237.181 497.392 238.97 497.582 240.81C497.987 242.957 498.29 245.122 498.55 247.289C499.552 255.402 499.115 263.627 497.258 271.59C496.177 276.08 489.205 274.182 490.289 269.68C491.837 262.948 492.254 256.008 491.526 249.141C491.353 247.418 491.131 245.698 490.841 243.997C490.69 243.078 490.514 242.163 490.317 241.252C490.232 240.867 490.146 240.483 490.052 240.098C489.982 239.81 489.909 239.521 489.83 239.233C489.867 239.343 489.934 239.44 490.023 239.515C490.112 239.59 490.22 239.639 490.335 239.657C486.251 239.7 482.18 239.197 478.231 238.16C470.521 236.232 461.705 232.959 456.617 226.567C451.647 220.319 450.399 212.78 450.381 205.028C450.238 197.936 450.919 190.852 452.412 183.916C453.484 179.427 460.455 181.323 459.381 185.826V185.819Z" fill="#1F4038"/>
<path d="M546.25 203.968C546.444 205.245 546.713 206.509 547.057 207.755C547.301 208.593 547.604 209.401 547.918 210.221C548.161 210.85 547.714 209.802 547.918 210.221C548.021 210.435 548.111 210.655 548.21 210.87C548.475 211.441 548.753 212.005 549.043 212.563C549.688 213.81 550.385 215.03 551.112 216.23C551.492 216.857 551.879 217.48 552.293 218.084C552.501 218.384 552.714 218.683 552.934 218.982C553.145 219.265 552.766 218.798 553.147 219.247C553.983 220.247 554.879 221.196 555.828 222.091C556.359 222.59 556.905 223.068 557.464 223.527C557.75 223.767 558.039 224.002 558.331 224.234C558.403 224.291 559.195 224.903 558.811 224.611C559.62 225.109 560.205 225.897 560.447 226.811C560.688 227.726 560.567 228.698 560.108 229.526C559.156 230.996 556.769 232.036 555.164 230.814C552.641 229 550.326 226.915 548.262 224.597C546.204 222.095 544.426 219.377 542.958 216.493C541.166 213.174 539.924 209.59 539.279 205.878C539.049 204.96 539.182 203.989 539.652 203.166C540.123 202.344 540.893 201.733 541.805 201.46C542.728 201.218 543.711 201.345 544.541 201.814C545.372 202.283 545.985 203.056 546.25 203.968Z" fill="#1F4038"/>
<path d="M526.644 185.407C525.913 181.332 524.804 177.332 523.332 173.46C522.809 172.079 522.158 170.75 521.388 169.489C520.506 168.319 519.505 167.243 518.4 166.279C512.678 160.756 506.581 155.566 501.323 149.59C500.106 148.207 498.945 146.772 497.859 145.284C497.614 144.947 497.362 144.609 497.138 144.257C496.536 143.328 497.064 144.132 497.225 144.296C497.09 144.157 496.259 143.398 496.656 143.713C497.054 144.027 496.134 143.374 495.941 143.255C495.507 142.988 495.06 142.743 494.61 142.506C494.159 142.27 493.696 142.047 493.232 141.833C492.957 141.706 492.681 141.582 492.404 141.459C492.228 141.373 492.048 141.297 491.865 141.23C487.088 139.326 482.176 137.775 477.169 136.59C476.075 136.322 474.974 136.068 473.866 135.854C473.45 135.775 473.033 135.712 472.619 135.637C473.17 135.737 473.132 135.544 472.537 135.652C471.841 135.755 471.172 135.997 470.572 136.364C469.177 137.56 468.048 139.034 467.26 140.69C464.957 144.705 458.71 141.091 461.018 137.063C462.965 133.667 465.41 130.466 469.228 129.086C471.269 128.421 473.459 128.349 475.54 128.88C480.719 129.897 485.808 131.325 490.758 133.148C495.62 134.887 500.633 136.68 503.663 141.037C508.463 147.945 515.376 153.483 521.454 159.23C524.59 162.197 527.405 164.893 529.189 168.877C531.232 173.56 532.716 178.466 533.609 183.493C533.839 184.41 533.707 185.379 533.239 186.202C532.772 187.025 532.004 187.638 531.095 187.915C530.172 188.16 529.188 188.034 528.356 187.565C527.525 187.096 526.912 186.321 526.65 185.407H526.644Z" fill="#1F4038"/>
<path d="M472.087 376.699C471.881 388.189 471.881 405.418 471.148 421.994L472.087 376.699Z" fill="white"/>
<path d="M475.701 376.699C475.436 391.8 475.42 406.902 474.761 421.994C474.561 426.599 467.332 426.625 467.534 421.994C468.192 406.902 468.208 391.8 468.473 376.699C468.555 372.082 475.782 372.067 475.701 376.699Z" fill="#1F4038"/>
<path d="M339.678 293.773C336.323 291.657 332.809 289.814 329.439 287.727C325.718 285.423 321.992 283.018 317.565 282.367C317.211 282.316 316.838 282.277 316.479 282.255C315.654 282.205 317.314 282.057 316.147 282.264C315.434 282.39 314.721 282.761 314.016 282.84C314.094 282.831 313.715 283.261 314.093 282.671C314.231 282.454 313.802 283.006 313.771 283.12C313.507 284.061 313.454 283.98 313.757 284.81C315.281 288.69 317.4 292.311 320.039 295.546C321.531 297.437 323.292 298.718 323.089 301.356C322.911 303.645 322.772 305.934 322.596 308.223C322.147 311.832 322.002 315.472 322.162 319.105C322.292 322.142 322.887 325.141 323.929 327.999C323.701 327.468 324.444 328.738 324.584 328.912C326.714 331.503 329.292 333.696 332.197 335.388C336.879 338.082 342.905 338.659 348.224 338.884C353.542 339.108 358.793 338.864 364.077 339.445C365.027 339.472 365.93 339.859 366.602 340.527C367.274 341.195 367.663 342.093 367.691 343.037C367.685 343.988 367.302 344.898 366.626 345.57C365.949 346.243 365.033 346.623 364.077 346.629C352.143 345.316 338.815 347.778 328.017 341.279C323.676 338.664 318.832 334.744 316.958 329.904C315.59 325.814 314.862 321.538 314.801 317.228C314.778 314.748 314.925 312.269 315.24 309.809C315.501 306.692 315.677 303.567 315.933 300.449L316.987 302.994C312.886 298.603 309.602 293.523 307.288 287.99C306.677 286.721 306.366 285.329 306.379 283.923C306.392 282.516 306.728 281.13 307.362 279.872C307.957 278.735 308.811 277.751 309.854 276.998C310.898 276.245 312.104 275.743 313.376 275.532C318.681 274.185 324.399 276.481 328.978 279.036C333.807 281.73 338.645 284.624 343.324 287.566C347.239 290.037 343.625 296.257 339.675 293.77L339.678 293.773Z" fill="#1F4038"/>
<path d="M375.655 311.147C366.921 306.721 362.274 298.501 357.617 290.353C357.135 289.512 357.188 289.856 357.596 290.172C357.394 289.991 357.203 289.799 357.024 289.596C356.397 288.969 357.368 289.805 356.733 289.362C356.456 289.171 356.179 288.981 355.897 288.798C354.412 287.855 352.874 286.996 351.291 286.225C348.319 284.623 345.157 283.396 341.878 282.573C337.343 281.557 339.261 274.631 343.8 275.647C347.388 276.581 350.858 277.918 354.141 279.633C357.308 280.914 360.213 282.76 362.713 285.079C363.989 286.745 365.081 288.544 365.968 290.444C367.159 292.519 368.388 294.578 369.769 296.534C372.2 300.076 375.478 302.961 379.31 304.931C380.137 305.412 380.739 306.2 380.982 307.122C381.225 308.044 381.09 309.024 380.606 309.846C380.122 310.669 379.329 311.267 378.402 311.509C377.475 311.75 376.489 311.616 375.661 311.135L375.655 311.147Z" fill="#1F4038"/>
<path d="M596.532 425.686C591.161 413.649 588.069 400.73 587.413 387.578C586.604 373.061 587.134 358.458 587.161 343.923C587.188 329.02 587.011 313.841 584.04 299.174C581.932 288.732 578.155 278.429 571.475 269.978C565.452 262.359 556.748 255.429 547.321 252.601C537.038 249.729 526.041 250.868 516.575 255.784C511.951 258.086 507.834 261.279 504.464 265.177C502.946 267.128 501.538 269.161 500.247 271.267C498.532 273.811 496.736 276.292 494.897 278.75C486.433 290.045 477.037 300.53 467.61 311.03C463.43 315.686 458.999 320.386 453.525 323.557C447.119 327.268 440.158 327.62 433.005 326.162C418.419 323.187 404.297 317.714 390.207 313.034C386.493 311.801 382.767 310.598 379.031 309.426L383.112 307.78C377.482 320.634 372.19 333.64 367.414 346.832L365.757 342.776C377.075 348.001 388.326 353.367 399.734 358.395C410.684 363.429 421.96 367.729 433.487 371.266C437.824 372.601 442.275 373.539 446.784 374.068C452.05 374.405 457.339 374.008 462.495 372.888C475.596 370.329 488.031 365.057 499.827 358.97C513.142 351.927 526.006 344.073 538.346 335.454C542.187 332.827 545.806 339.045 541.993 341.655C530.766 349.465 519.127 356.674 507.126 363.249C494.876 369.834 481.94 375.696 468.359 378.963C462.229 380.533 455.929 381.351 449.599 381.4C444.961 381.254 440.356 380.571 435.877 379.363C424.049 376.435 412.666 371.738 401.499 366.953C388.23 361.266 375.212 355.031 362.11 348.98C361.423 348.58 360.888 347.965 360.589 347.232C360.289 346.498 360.242 345.687 360.454 344.924C365.441 331.148 370.995 317.579 376.879 304.156C377.282 303.473 377.9 302.941 378.639 302.643C379.377 302.346 380.194 302.299 380.961 302.51C395.666 307.091 410.108 312.506 424.931 316.698C431.594 318.582 439.158 321.276 446.055 319.103C451.601 317.356 456.002 312.95 459.875 308.835C469.502 298.726 478.609 288.139 487.159 277.115C490.786 272.376 493.891 267.29 497.45 262.519C500.823 258.031 505.032 254.227 509.847 251.315C519.539 245.391 530.964 242.9 542.261 244.248C553.404 245.691 563.481 251.665 571.498 259.333C590.187 277.204 593.421 304.06 594.203 328.535C594.696 344.032 594.188 359.548 594.311 375.05C594.412 387.747 595.108 400.302 599.069 412.465C600.133 415.725 601.37 418.928 602.774 422.058C603.228 422.887 603.347 423.857 603.106 424.771C602.865 425.684 602.283 426.471 601.477 426.972C600.648 427.446 599.664 427.576 598.739 427.335C597.813 427.094 597.021 426.501 596.532 425.683V425.686Z" fill="#1F4038"/>
<path d="M454.74 195.159C458.12 195.437 461.479 195.932 464.795 196.642C466.349 196.978 467.89 197.366 469.419 197.808C471.012 198.166 472.557 198.712 474.021 199.432C475.032 199.989 475.814 200.882 476.229 201.955C476.644 203.028 476.666 204.212 476.29 205.299C475.53 206.903 474.48 208.355 473.194 209.584C471.668 211.347 470.041 213.022 468.323 214.6C467.638 215.235 466.732 215.581 465.796 215.565C464.859 215.549 463.966 215.173 463.303 214.515C462.641 213.857 462.261 212.97 462.244 212.039C462.227 211.109 462.574 210.208 463.212 209.527C464.639 208.228 466 206.857 467.288 205.422C467.999 204.618 468.678 203.786 469.396 202.985L469.61 202.735C469.345 203.1 469.327 203.115 469.554 202.783C469.39 203.211 469.354 203.676 469.449 204.124C469.544 204.572 469.767 204.984 470.09 205.309C470.574 205.723 470.633 205.814 470.267 205.58C470.703 205.749 470.797 205.79 470.545 205.698C470.232 205.615 469.926 205.49 469.618 205.39C467.132 204.586 464.604 203.922 462.043 203.4C460.763 203.139 459.477 202.914 458.184 202.725C458.125 202.716 457.021 202.575 457.794 202.668C457.455 202.629 457.118 202.584 456.779 202.546C456.101 202.472 455.424 202.407 454.743 202.349C453.785 202.349 452.866 201.971 452.188 201.297C451.51 200.623 451.129 199.71 451.129 198.757C451.129 197.804 451.51 196.891 452.188 196.217C452.866 195.544 453.785 195.165 454.743 195.165L454.74 195.159Z" fill="#1F4038"/>
<path d="M481.539 164.826C481.69 168.016 479.851 174.905 475.203 174.554C469.219 173.267 470.535 164.751 473.325 161.196C475.606 158.293 480.726 157.946 481.539 164.826Z" fill="#1F4038"/>
<path d="M402.087 35.5675C398.201 32.7134 393.571 31.3709 389.015 31.7772C385.681 32.0557 382.525 33.2888 379.874 35.3489C378.149 36.9468 376.804 38.9617 375.94 41.2431C375.076 43.5246 374.715 46.0137 374.885 48.5246C375.334 53.5333 377.131 58.3716 380.056 62.448C382.942 66.3698 386.675 69.4925 390.902 71.522C397.595 74.8217 404.769 76.6768 411.994 76.9765C414.825 77.1212 417.559 76.1832 419.704 74.3301C425.222 69.6569 429.744 63.7879 432.998 57.0735C435.088 52.8761 436.116 48.1192 435.985 43.2512C435.788 38.2385 434.234 33.3172 431.512 29.0883C430.104 27.0026 428.29 25.2597 426.207 23.9898C424.124 22.7199 421.825 21.9559 419.481 21.7546C416.123 21.757 412.875 22.7219 410.073 24.5494C406.228 27.0263 403.4 30.929 402.087 35.5675Z" fill="#D98A58"/>
<path d="M404.275 33.2852C401.561 31.2793 398.496 29.8915 395.286 29.2149C392.076 28.5384 388.796 28.5886 385.665 29.3622C382.656 30.034 379.892 31.5155 377.638 33.6658C375.383 35.8162 373.711 38.564 372.783 41.6478C370.703 48.4779 372.801 56.5727 376.621 62.5926C380.798 68.7472 386.719 73.3658 393.471 75.7371C396.816 77.0718 400.26 78.0757 403.757 78.7355C407.237 79.5414 410.787 79.8211 414.299 79.5662C417.955 78.9256 421.287 77.1034 423.844 74.3468C426.406 71.9743 428.746 69.3479 430.833 66.5011C434.887 60.9014 438.362 54.3839 439.01 47.1396C439.426 43.3615 439.094 39.5002 438.036 35.7973C436.978 32.0944 435.217 28.6294 432.862 25.6191C430.505 22.8233 427.463 20.7697 424.101 19.7037C420.739 18.6376 417.198 18.6042 413.902 19.6074C410.408 20.6778 407.249 22.6388 404.695 25.3222C402.14 28.0056 400.267 31.3315 399.236 35.0147C399.098 35.8644 399.284 36.7517 399.754 37.4851C400.225 38.2185 400.942 38.7391 401.751 38.9346C402.561 39.104 403.388 38.9393 404.06 38.4748C404.732 38.0104 405.197 37.282 405.359 36.4416C406.095 34.1066 407.312 31.991 408.925 30.2423C410.538 28.4936 412.507 27.1537 414.697 26.3161C416.689 25.4639 418.888 25.2157 421.054 25.5984C423.22 25.9812 425.27 26.9803 426.981 28.487C431.095 32.1185 433.005 38.5442 432.971 43.907C432.733 49.4217 431.026 54.6884 428.047 59.1055C425.184 64.0171 421.438 68.2682 417.009 71.632C414.57 73.343 411.762 73.2006 408.897 72.9081C406.149 72.6246 403.417 72.118 400.725 71.393C395.34 70.1733 390.253 67.63 385.883 63.9729C381.576 60.0992 378.825 54.6466 378.23 48.8062C377.975 46.2422 378.476 43.6918 379.665 41.5055C380.853 39.3193 382.669 37.6047 384.864 36.5975C387.314 35.5122 390.004 35.0879 392.699 35.3618C395.394 35.6356 398.013 36.5992 400.327 38.1686C400.972 38.7278 401.785 39.0137 402.599 38.9677C403.413 38.9217 404.166 38.5472 404.704 37.9211C405.221 37.2694 405.466 36.4181 405.385 35.5508C405.305 34.6835 404.906 33.8698 404.275 33.2852Z" fill="#1F4038"/>
</g>
<defs>
<clipPath id="clip0_17_181">
<rect width="610" height="428" fill="white" transform="matrix(-1 0 0 1 610 0)"/>
</clipPath>
</defs>
</svg>
